<svg id="Layer_1" data-name="Layer 1" xmlns="http://www.w3.org/2000/svg" xmlns:xlink="http://www.w3.org/1999/xlink" viewBox="0 0 243.88 125.79"><defs><style>.cls-1,.cls-4{fill:none;}.cls-2{clip-path:url(#clip-path);}.cls-3{fill:#231f20;}.cls-4{stroke:#231f20;stroke-width:0.25px;}</style><clipPath id="clip-path" transform="translate(-224 -342.48)"><rect class="cls-1" x="224" y="342.48" width="243.88" height="125.79"/></clipPath></defs><title>SoS Text 5</title><g class="cls-2"><path class="cls-3" d="M305.5,347.5a1.37,1.37,0,0,1-.76.27c-.52,0-1.1-.46-1.1-1.41,0-1.16.67-1.48,1-1.48a1,1,0,0,1,.82.41Zm1.24.27-.25,0c-.3,0-.36-.07-.36-.49v-4.78a6.33,6.33,0,0,1-1.24.28v.2c.57,0,.61.06.61.59v1.13a1.62,1.62,0,0,0-.52-.09,2,2,0,0,0-2.07,2,1.61,1.61,0,0,0,1.48,1.71A1.41,1.41,0,0,0,305,348l.48-.28v.52a8.33,8.33,0,0,1,1.24-.31Zm-4.29.41V348c-.47-.05-.51-.08-.51-.62V345.8c0-.77-.4-1.21-1-1.21a1.16,1.16,0,0,0-.66.24c-.2.13-.38.25-.54.37v-.64a4.73,4.73,0,0,1-1.11.33v.19c.43.08.48.1.48.61v1.66c0,.53,0,.57-.58.62v.21h1.73V348c-.47-.05-.52-.08-.52-.62v-1.88a1.42,1.42,0,0,1,.87-.41c.54,0,.73.36.73.91v1.34c0,.55-.05.61-.53.66v.21Zm-5.43-.67a1.18,1.18,0,0,1-.64.29.59.59,0,0,1-.57-.62c0-.29.18-.44.49-.58s.56-.25.72-.34Zm1.27.36-.08-.21a.62.62,0,0,1-.29.09c-.14,0-.28-.12-.28-.48v-1.49a1.18,1.18,0,0,0-.36-1,1.08,1.08,0,0,0-.66-.21,3.73,3.73,0,0,0-1.2.56c-.15.11-.25.2-.25.32a.39.39,0,0,0,.35.34.22.22,0,0,0,.23-.18,1.14,1.14,0,0,1,.24-.53.44.44,0,0,1,.36-.16c.4,0,.67.33.67.9V346a5.8,5.8,0,0,1-1.24.52.79.79,0,0,0-.64.79,1,1,0,0,0,1,1c.24,0,.62-.3.94-.52a.84.84,0,0,0,.19.36.68.68,0,0,0,.38.16Zm-5.34,0-.07-.21a1.1,1.1,0,0,1-.5.14c-.2,0-.46-.12-.46-.77V345h.85a.24.24,0,0,0,.05-.32h-.9v-1.09l-.11,0-.52.53v.58h-.37l-.22.24,0,.08h.55v2.32c0,.64.28,1,.78,1a.92.92,0,0,0,.34-.11Zm-2.4.29V348c-.47,0-.53-.09-.53-.61V346c0-1-.45-1.37-1.1-1.37a1.78,1.78,0,0,0-1.15.58v-2.69a7.43,7.43,0,0,1-1.17.28V343c.53.05.54.09.54.59v3.82c0,.52-.07.57-.55.61v.21h1.7V348c-.48-.05-.52-.1-.52-.61v-1.91a1.17,1.17,0,0,1,.84-.41c.53,0,.78.33.78,1v1.33c0,.52-.06.56-.53.61v.21Zm-6,.09a2.05,2.05,0,0,1,.77.1.59.59,0,0,1,.37.57c0,.5-.39.89-1.15.89-.59,0-1.06-.33-1.06-.76a.88.88,0,0,1,.37-.63,1,1,0,0,1,.7-.17m-.17-3.44c.45,0,.75.45.75,1.08s-.31.94-.66.95-.76-.45-.76-1.07.32-1,.67-1m1.93-.15a9.54,9.54,0,0,1-1.08.11,1.61,1.61,0,0,0-.77-.2,1.36,1.36,0,0,0-1.43,1.33,1.15,1.15,0,0,0,.7,1.07,1.72,1.72,0,0,1-.7.49.57.57,0,0,0,.08.33,1.1,1.1,0,0,0,.6.44,7.63,7.63,0,0,0-.67.56.62.62,0,0,0-.19.45c0,.46.5,1,1.38,1a1.91,1.91,0,0,0,2-1.59c0-.78-.65-.94-1.15-.94h-.84c-.36,0-.5-.16-.5-.32s.13-.25.24-.32.27,0,.41,0a1.3,1.3,0,0,0,1.4-1.28,1.07,1.07,0,0,0-.24-.71l.45,0a1.19,1.19,0,0,0,.36-.41Zm-3.82,3.5V348c-.51-.05-.57-.09-.57-.64v-2.76a4.59,4.59,0,0,1-1.13.31v.2c.48.08.5.11.5.6v1.65c0,.55-.06.59-.56.64v.21Zm-.94-4.29a.41.41,0,0,0,.41-.41.39.39,0,0,0-.4-.41.41.41,0,0,0-.41.41.42.42,0,0,0,.4.41m-2.64,1.55v-.88a4.39,4.39,0,0,1-1.13.33v.18c.45.06.49.09.49.62v1.66c0,.53-.05.57-.55.62v.21h1.84V348c-.61-.05-.65-.09-.65-.62v-1.47c.17-.44.43-.68.64-.68a.42.42,0,0,1,.33.16.19.19,0,0,0,.22,0,.41.41,0,0,0-.21-.79c-.38,0-.73.45-1,.85Zm-4.58,2.07a1.18,1.18,0,0,1-.64.29.59.59,0,0,1-.57-.62c0-.29.18-.44.49-.58l.72-.34Zm1.26.36-.08-.21a.58.58,0,0,1-.28.09c-.14,0-.28-.12-.28-.48v-1.49a1.18,1.18,0,0,0-.36-1,1.08,1.08,0,0,0-.66-.21,3.54,3.54,0,0,0-1.2.56c-.15.11-.26.2-.26.32a.39.39,0,0,0,.36.34.22.22,0,0,0,.23-.18,1,1,0,0,1,.24-.53.44.44,0,0,1,.36-.16c.4,0,.67.33.67.9V346a6,6,0,0,1-1.24.52.8.8,0,0,0-.65.79,1,1,0,0,0,1,1,2.52,2.52,0,0,0,.95-.52.74.74,0,0,0,.19.36.65.65,0,0,0,.37.16Z" transform="translate(-224 -342.48)"/><path class="cls-3" d="M466.64,419.5a1.37,1.37,0,0,1-.77.27c-.51,0-1.09-.46-1.09-1.41,0-1.16.67-1.48,1-1.48a1,1,0,0,1,.82.41Zm1.24.27-.26,0c-.29,0-.35-.07-.35-.49v-4.78a6.28,6.28,0,0,1-1.25.28v.2c.58,0,.62.06.62.59v1.13a1.67,1.67,0,0,0-.53-.09,2,2,0,0,0-2.06,2,1.61,1.61,0,0,0,1.48,1.71,1.39,1.39,0,0,0,.62-.24l.49-.28v.52a7.77,7.77,0,0,1,1.24-.31Zm-4.3.41V420c-.46-.05-.5-.08-.5-.62V417.8c0-.77-.4-1.21-1-1.21a1.22,1.22,0,0,0-.67.24l-.53.37v-.64a4.73,4.73,0,0,1-1.11.33v.19c.43.08.48.1.48.61v1.66c0,.53,0,.57-.59.62v.21h1.74V420c-.47-.05-.52-.08-.52-.62v-1.88a1.42,1.42,0,0,1,.87-.41c.54,0,.73.36.73.91v1.34c0,.55-.06.61-.53.66v.21Zm-5.42-.67a1.18,1.18,0,0,1-.64.29.59.59,0,0,1-.57-.62c0-.29.18-.44.49-.58l.72-.34Zm1.26.36-.08-.21a.58.58,0,0,1-.28.09c-.14,0-.28-.12-.28-.48v-1.49a1.18,1.18,0,0,0-.36-1,1.08,1.08,0,0,0-.66-.21,3.54,3.54,0,0,0-1.2.56c-.15.11-.26.2-.26.32a.39.39,0,0,0,.36.34.22.22,0,0,0,.23-.18,1,1,0,0,1,.24-.53.44.44,0,0,1,.36-.16c.4,0,.67.33.67.9V418a6,6,0,0,1-1.24.52.8.8,0,0,0-.65.79,1,1,0,0,0,1,1,2.52,2.52,0,0,0,.95-.52.74.74,0,0,0,.19.36.65.65,0,0,0,.37.16Zm-7.39-3c.7,0,1.07.76,1.07,1.7s-.4,1.46-.9,1.46c-.66,0-1.1-.75-1.1-1.76s.44-1.4.93-1.4m.08-.26a1.82,1.82,0,0,0-1.75,1.92,1.74,1.74,0,0,0,1.75,1.77,1.79,1.79,0,0,0,1.74-1.91,1.74,1.74,0,0,0-1.74-1.78m-2.05,3.3-.08-.21a1.05,1.05,0,0,1-.49.14c-.2,0-.47-.12-.47-.77V417h.86a.24.24,0,0,0,.05-.32H449v-1.09l-.11,0-.52.53v.58H448l-.22.24,0,.08h.55v2.32c0,.64.28,1,.79,1a.84.84,0,0,0,.33-.11Zm-2.7-.6a1.28,1.28,0,0,1-1,.44,1.31,1.31,0,0,1-1.2-1.48c0-.84.46-1.28,1-1.28a1.18,1.18,0,0,1,.8.33c.07.06.11.09.15.09a.39.39,0,0,0,.26-.35.28.28,0,0,0-.12-.24,1.18,1.18,0,0,0-.72-.21,2.09,2.09,0,0,0-1.2.45,1.9,1.9,0,0,0-.8,1.56,1.6,1.6,0,0,0,1.6,1.68,1.94,1.94,0,0,0,1.36-.82Zm-4.76-2.41a.75.75,0,0,1,.71.8c0,.12-.05.16-.2.16l-1.35,0c.12-.65.47-1,.84-1m1.22,2.45a1.3,1.3,0,0,1-.91.4c-.56,0-1.18-.45-1.19-1.53.95,0,1.95-.12,2.09-.14s.18-.1.18-.26a1.23,1.23,0,0,0-1.2-1.21,1.6,1.6,0,0,0-1.17.58,2.06,2.06,0,0,0-.53,1.4,1.58,1.58,0,0,0,1.56,1.71,1.82,1.82,0,0,0,1.3-.78Zm-4.44-1.89v-.88a4.39,4.39,0,0,1-1.13.33v.18c.46.06.5.09.5.62v1.66c0,.53-.06.57-.56.62v.21H440V420c-.61-.05-.65-.09-.65-.62v-1.47c.17-.44.43-.68.64-.68a.42.42,0,0,1,.33.16.19.19,0,0,0,.22,0,.41.41,0,0,0-.21-.79c-.38,0-.73.45-1,.85Zm-4.58,2.07a1.18,1.18,0,0,1-.64.29.59.59,0,0,1-.57-.62c0-.29.18-.44.49-.58l.72-.34Zm1.26.36-.08-.21a.58.58,0,0,1-.28.09c-.14,0-.28-.12-.28-.48v-1.49a1.18,1.18,0,0,0-.36-1,1.08,1.08,0,0,0-.66-.21,3.54,3.54,0,0,0-1.2.56c-.15.11-.25.2-.25.32a.38.38,0,0,0,.35.34.22.22,0,0,0,.23-.18,1,1,0,0,1,.24-.53.44.44,0,0,1,.36-.16c.4,0,.67.33.67.9V418a5.8,5.8,0,0,1-1.24.52.8.8,0,0,0-.65.79,1,1,0,0,0,1,1,2.52,2.52,0,0,0,.95-.52.84.84,0,0,0,.19.36.65.65,0,0,0,.37.16Z" transform="translate(-224 -342.48)"/><path class="cls-3" d="M295.21,468.28a.46.46,0,0,0,0-.92.46.46,0,0,0,0,.92m-2.79-3.43c.69,0,1.07.76,1.07,1.7s-.41,1.46-.91,1.46-1.09-.75-1.09-1.76.43-1.4.93-1.4m.08-.26a1.83,1.83,0,0,0-1.76,1.92,1.74,1.74,0,0,0,1.76,1.77,1.78,1.78,0,0,0,1.73-1.91,1.73,1.73,0,0,0-1.73-1.78m-2.49,1a6.25,6.25,0,0,0-.18-.86,2,2,0,0,0-.71-.13,1.1,1.1,0,0,0-1.22,1c0,.62.52.88,1,1.1s.64.38.64.73a.56.56,0,0,1-.57.56c-.48,0-.84-.46-1-1l-.2,0a4.07,4.07,0,0,0,.12.94,1.64,1.64,0,0,0,.92.28,1.2,1.2,0,0,0,1.32-1.11c0-.55-.4-.84-1-1.09-.36-.15-.68-.33-.68-.69a.52.52,0,0,1,.52-.55c.39,0,.67.32.82.79Zm-4-.14v-.88a4.39,4.39,0,0,1-1.13.33v.18c.45.06.49.09.49.62v1.66c0,.53,0,.57-.55.62v.21h1.84V468c-.61-.05-.65-.09-.65-.62v-1.47c.17-.44.43-.68.64-.68a.42.42,0,0,1,.33.16.19.19,0,0,0,.22,0,.41.41,0,0,0-.21-.79c-.38,0-.73.45-1,.85Zm-3-.56a.73.73,0,0,1,.7.8c0,.12-.05.16-.19.16l-1.35,0c.12-.65.47-1,.84-1m1.22,2.45a1.31,1.31,0,0,1-.91.4c-.56,0-1.19-.45-1.19-1.53.95,0,1.95-.12,2.08-.14s.19-.1.19-.26a1.24,1.24,0,0,0-1.2-1.21,1.62,1.62,0,0,0-1.18.58,2.06,2.06,0,0,0-.53,1.4,1.59,1.59,0,0,0,1.56,1.71,1.85,1.85,0,0,0,1.31-.78Zm-2.86-2.65h-1.42v.2c.46.06.5.15.38.53s-.43,1.25-.71,1.91c-.23-.57-.55-1.41-.76-2-.13-.35-.11-.41.32-.47v-.2h-1.64v.2c.43.07.5.12.68.59.38.93.75,1.84,1.11,2.8h.21c.44-1.19.87-2.18,1.13-2.78s.29-.55.7-.61Zm-6.94,2.83a1.18,1.18,0,0,1-.64.29.59.59,0,0,1-.57-.62c0-.29.18-.44.49-.58l.72-.34Zm1.26.36-.08-.21a.58.58,0,0,1-.28.09c-.14,0-.28-.12-.28-.48v-1.49a1.18,1.18,0,0,0-.36-1,1.08,1.08,0,0,0-.66-.21,3.54,3.54,0,0,0-1.2.56c-.15.11-.26.2-.26.32a.39.39,0,0,0,.36.34.22.22,0,0,0,.23-.18,1,1,0,0,1,.24-.53.44.44,0,0,1,.36-.16c.4,0,.67.33.67.9V466a6,6,0,0,1-1.24.52.8.8,0,0,0-.65.79,1,1,0,0,0,1,1,2.52,2.52,0,0,0,.95-.52.74.74,0,0,0,.19.36.65.65,0,0,0,.37.16Z" transform="translate(-224 -342.48)"/><path class="cls-3" d="M239.85,371.15a.37.37,0,0,0-.39.33c0,.13.06.19.1.2a.56.56,0,0,1,.5.53c0,.31-.23.51-.61.67l.09.24c.48-.15,1-.49,1-1.11a.82.82,0,0,0-.73-.86m-.79.76-.08-.22a1.05,1.05,0,0,1-.49.14c-.21,0-.47-.13-.47-.78V369h.85a.24.24,0,0,0,.06-.32H238v-1.06l-.12,0-.51.54v.54h-1.51v-.2a2.61,2.61,0,0,1,.19-1.33.5.5,0,0,1,.43-.24.94.94,0,0,1,.62.28.13.13,0,0,0,.19,0,.62.62,0,0,0,.19-.21.27.27,0,0,0-.05-.29.84.84,0,0,0-.6-.24,1.72,1.72,0,0,0-.88.43,1.81,1.81,0,0,0-.64,1,2.15,2.15,0,0,0-.08.61v.2h-.39l-.21.24,0,.08h.56v2.35c0,.5-.06.57-.56.62v.21h1.78V372c-.53-.05-.59-.11-.59-.63V369h1.51v2.32c0,.64.28,1,.79,1a.75.75,0,0,0,.32-.1Zm-6.21-3a.73.73,0,0,1,.7.8c0,.12-.05.16-.19.16l-1.35,0c.12-.65.47-1,.84-1m1.22,2.45a1.31,1.31,0,0,1-.91.4c-.56,0-1.19-.45-1.19-1.53.95,0,1.95-.12,2.08-.14s.19-.1.19-.26a1.24,1.24,0,0,0-1.2-1.21,1.62,1.62,0,0,0-1.18.58,2,2,0,0,0-.52,1.4,1.58,1.58,0,0,0,1.55,1.71,1.83,1.83,0,0,0,1.31-.78Zm-3.15.85V372c-.51-.05-.58-.09-.58-.62v-4.87a5.25,5.25,0,0,1-1.18.28v.2c.5,0,.55.06.55.6v3.79c0,.53-.07.57-.57.62v.21Zm-5-.67a1.18,1.18,0,0,1-.64.29.59.59,0,0,1-.57-.62c0-.29.18-.44.49-.58l.72-.34Zm1.26.36-.08-.21a.58.58,0,0,1-.29.09c-.13,0-.28-.12-.28-.48v-1.49a1.18,1.18,0,0,0-.36-1,1,1,0,0,0-.65-.21,3.54,3.54,0,0,0-1.2.56c-.15.11-.26.2-.26.32a.39.39,0,0,0,.35.34.23.23,0,0,0,.24-.18,1,1,0,0,1,.24-.53.43.43,0,0,1,.36-.16c.4,0,.67.33.67.9V370a6,6,0,0,1-1.24.52.8.8,0,0,0-.65.79,1,1,0,0,0,1,1c.24,0,.62-.3.94-.52a.76.76,0,0,0,.2.36.62.62,0,0,0,.37.16Z" transform="translate(-224 -342.48)"/></g><line class="cls-4" x1="60.69" y1="9.9" x2="19.39" y2="25.77"/><line class="cls-4" x1="19.35" y1="29.7" x2="206.33" y2="74.63"/><line class="cls-4" x1="206.33" y1="77.45" x2="60.69" y2="119.7"/></svg>