<svg id="Layer_1" data-name="Layer 1" xmlns="http://www.w3.org/2000/svg" xmlns:xlink="http://www.w3.org/1999/xlink" viewBox="0 0 223.88 156.53"><defs><style>.cls-1{fill:none;}.cls-2{clip-path:url(#clip-path);}.cls-3{fill:#231f20;}</style><clipPath id="clip-path" transform="translate(-187 -245.75)"><rect class="cls-1" x="187" y="245.75" width="223.88" height="156.53"/></clipPath></defs><title>SoS Text 1</title><g class="cls-2"><path class="cls-3" d="M359.08,250.41a.36.36,0,0,0-.38.33c0,.14.06.19.1.2a.57.57,0,0,1,.5.53c0,.31-.23.52-.62.68l.09.23c.49-.15,1.05-.49,1.05-1.11a.84.84,0,0,0-.74-.86M358,248.84a7.52,7.52,0,0,0-.18-.85,1.73,1.73,0,0,0-.71-.14,1.1,1.1,0,0,0-1.22,1c0,.62.52.88,1,1.11s.63.37.63.73a.56.56,0,0,1-.56.56c-.48,0-.84-.47-1-1l-.21,0a4.08,4.08,0,0,0,.13,1,1.62,1.62,0,0,0,.92.27,1.2,1.2,0,0,0,1.32-1.1c0-.56-.41-.85-1-1.09-.36-.16-.68-.34-.68-.7a.52.52,0,0,1,.52-.55c.4,0,.68.32.83.79Zm-2.9,0a4.75,4.75,0,0,0-.18-.85,1.7,1.7,0,0,0-.71-.14,1.1,1.1,0,0,0-1.21,1c0,.62.52.88,1,1.11s.63.37.63.73a.56.56,0,0,1-.57.56c-.48,0-.84-.47-1-1l-.21,0a3.61,3.61,0,0,0,.13,1,1.59,1.59,0,0,0,.92.27,1.2,1.2,0,0,0,1.32-1.1c0-.56-.41-.85-1-1.09-.36-.16-.68-.34-.68-.7a.52.52,0,0,1,.52-.55c.39,0,.67.32.82.79Zm-4.15-.69a.73.73,0,0,1,.7.8c0,.11-.05.16-.19.16l-1.35,0c.12-.65.47-1,.84-1m1.22,2.45a1.31,1.31,0,0,1-.91.4c-.56,0-1.18-.45-1.19-1.54,1,0,2-.11,2.09-.14s.18-.09.18-.25a1.24,1.24,0,0,0-1.2-1.22,1.65,1.65,0,0,0-1.18.58,2.1,2.1,0,0,0-.52,1.4,1.58,1.58,0,0,0,1.56,1.71,1.83,1.83,0,0,0,1.3-.78Zm-3.19.84v-.2c-.46-.05-.5-.08-.5-.63v-1.54c0-.78-.4-1.22-1-1.22a1.24,1.24,0,0,0-.66.24l-.54.38v-.64a5.09,5.09,0,0,1-1.11.33v.18c.43.08.48.1.48.62v1.65c0,.53,0,.57-.58.63v.2h1.73v-.2c-.47-.05-.52-.08-.52-.63v-1.88a1.44,1.44,0,0,1,.88-.41c.53,0,.72.36.72.91v1.34c0,.55-.05.62-.52.67v.2Zm-6,.09a2.08,2.08,0,0,1,.77.1.59.59,0,0,1,.37.57c0,.5-.4.89-1.16.89-.59,0-1.05-.33-1.05-.76a.86.86,0,0,1,.36-.62,1,1,0,0,1,.71-.18m-.18-3.44c.46,0,.76.45.76,1.08s-.32,1-.67,1-.75-.44-.75-1.07.31-1,.66-1m1.94-.15a8,8,0,0,1-1.09.11,1.58,1.58,0,0,0-.77-.2,1.37,1.37,0,0,0-1.43,1.33,1.15,1.15,0,0,0,.7,1.07,1.65,1.65,0,0,1-.7.49.62.62,0,0,0,.09.34,1,1,0,0,0,.59.43c-.19.15-.5.4-.66.56a.64.64,0,0,0-.19.45c0,.46.49,1,1.38,1a1.91,1.91,0,0,0,2-1.59c0-.78-.66-.94-1.15-.94h-.84c-.36,0-.51-.15-.51-.31a.49.49,0,0,1,.24-.33c.13,0,.27,0,.41,0a1.3,1.3,0,0,0,1.4-1.28,1.09,1.09,0,0,0-.24-.71l.46,0a1.44,1.44,0,0,0,.36-.41Zm-3.83,3.5v-.2c-.46-.05-.5-.08-.5-.63v-1.54c0-.78-.4-1.22-1-1.22a1.3,1.3,0,0,0-.67.24l-.53.38v-.64a5.26,5.26,0,0,1-1.11.33v.18c.43.08.48.1.48.62v1.65c0,.53,0,.57-.59.63v.2h1.74v-.2c-.47-.05-.52-.08-.52-.63v-1.88a1.42,1.42,0,0,1,.87-.41c.54,0,.73.36.73.91v1.34c0,.55-.06.62-.53.67v.2Zm-4.31,0v-.2c-.51-.05-.57-.1-.57-.64v-2.76a5.5,5.5,0,0,1-1.13.31v.19c.48.08.5.11.5.61v1.65c0,.54-.05.59-.56.64v.2Zm-.93-4.29a.41.41,0,0,0,0-.82.41.41,0,0,0,0,.82m-1.25,4.29v-.2c-.47,0-.53-.09-.53-.62v-1.4c0-1-.46-1.37-1.1-1.37a1.78,1.78,0,0,0-1.15.58v-2.68a10.6,10.6,0,0,1-1.17.28v.18c.53,0,.54.09.54.59v3.82c0,.53-.07.58-.55.62v.2h1.69v-.2c-.47-.05-.51-.11-.51-.62v-1.91a1.15,1.15,0,0,1,.83-.4c.54,0,.79.32.79,1v1.33c0,.52-.06.57-.53.62v.2Zm-4.21-.28-.07-.21a1.25,1.25,0,0,1-.5.13c-.2,0-.46-.12-.46-.76v-2.06H330A.22.22,0,0,0,330,248h-.9v-1.1H329l-.52.52V248h-.37l-.22.23,0,.08h.55v2.33c0,.63.28.95.78.95a.76.76,0,0,0,.34-.11Zm-4.41-3c.7,0,1.08.76,1.08,1.7,0,1.1-.41,1.47-.91,1.47-.66,0-1.1-.76-1.1-1.77s.44-1.4.93-1.4m.08-.26a1.82,1.82,0,0,0-1.75,1.92,1.74,1.74,0,0,0,1.75,1.77,1.78,1.78,0,0,0,1.74-1.91,1.73,1.73,0,0,0-1.74-1.78m-2.21,3.59v-.2c-.46-.05-.5-.08-.5-.63v-1.54c0-.78-.4-1.22-1-1.22a1.3,1.3,0,0,0-.67.24l-.53.38v-.64a5.26,5.26,0,0,1-1.11.33v.18c.43.08.48.1.48.62v1.65c0,.53,0,.57-.59.63v.2h1.74v-.2c-.47-.05-.52-.08-.52-.63v-1.88a1.42,1.42,0,0,1,.87-.41c.54,0,.73.36.73.91v1.34c0,.55-.06.62-.53.67v.2Zm-6.9.1a.46.46,0,0,0,0-.92.46.46,0,0,0,0,.92m0-3.38a.43.43,0,0,0-.44.44.45.45,0,1,0,.89,0,.43.43,0,0,0-.45-.44m-1.08,3.28v-.2c-.47,0-.53-.09-.53-.62v-1.4c0-1-.45-1.37-1.1-1.37a1.78,1.78,0,0,0-1.14.58v-2.68a10.8,10.8,0,0,1-1.18.28v.18c.53,0,.55.09.55.59v3.82c0,.53-.08.58-.56.62v.2h1.7v-.2c-.47-.05-.51-.11-.51-.62v-1.91a1.12,1.12,0,0,1,.83-.4c.54,0,.78.32.78,1v1.33c0,.52-.06.57-.53.62v.2Zm-4.31-.88a1.25,1.25,0,0,1-2.18-1.05c0-.84.46-1.28,1-1.28a1.18,1.18,0,0,1,.8.33c.07.07.11.09.15.09a.39.39,0,0,0,.26-.34.3.3,0,0,0-.12-.25,1.26,1.26,0,0,0-.72-.21,2.09,2.09,0,0,0-1.2.45,1.9,1.9,0,0,0-.8,1.57,1.6,1.6,0,0,0,1.6,1.67,1.91,1.91,0,0,0,1.36-.82Zm-3.23.49h-.23c-.3,0-.36-.08-.36-.48v-2.67a9.2,9.2,0,0,1-1.26.15v.18c.58.08.63.11.63.57v1.86a1.25,1.25,0,0,1-.87.39c-.36,0-.7-.2-.7-.91v-1.07c0-.54,0-.92,0-1.17a11.5,11.5,0,0,1-1.14.15v.18c.45.09.49.12.49.56v1.57c0,.86.45,1.19,1,1.19a1.19,1.19,0,0,0,.61-.2c.23-.14.41-.28.6-.42v.57l0,0a9.63,9.63,0,0,1,1.18-.29Zm-4.18.39v-.2c-.45-.05-.52-.08-.52-.62v-1.55c0-.78-.39-1.22-1-1.22a1.08,1.08,0,0,0-.6.21,6.55,6.55,0,0,0-.67.45,1,1,0,0,0-.88-.66,1.19,1.19,0,0,0-.66.22c-.24.15-.42.29-.59.41v-.65a5,5,0,0,1-1.11.33v.18c.47.07.49.11.49.62v1.66c0,.52-.07.57-.6.62v.2h1.69v-.2c-.39-.05-.46-.1-.46-.62v-1.88a1.49,1.49,0,0,1,.88-.42c.48,0,.69.33.69.92v1.38c0,.53-.07.57-.57.62v.2h1.71v-.2c-.44-.05-.51-.1-.51-.6v-1.57a2.63,2.63,0,0,0,0-.33,1.45,1.45,0,0,1,.9-.42c.5,0,.7.36.7.93v1.34c0,.57-.09.6-.56.65v.2Zm-8-3.49h-1.45v.2c.46.06.52.15.42.45-.17.51-.51,1.45-.74,2l-.73-2c-.1-.3-.06-.38.31-.44V248h-1.62v.2c.44.06.52.16.68.6s.6,1.54.92,2.45a.5.5,0,0,1,0,.36,2.93,2.93,0,0,1-.25.55,1.62,1.62,0,0,1-.59.72c-.13.08-.21.16-.21.28a.46.46,0,0,0,.46.39.23.23,0,0,0,.25-.19,17.76,17.76,0,0,1,.83-2.17c.55-1.32.8-2,1-2.41s.29-.52.71-.58Zm-5.58.75v-.87a4.62,4.62,0,0,1-1.12.33v.17c.45.07.49.1.49.63v1.65c0,.53,0,.58-.55.63v.2h1.84v-.2c-.62-.05-.66-.1-.66-.63v-1.46c.18-.45.44-.69.64-.69a.43.43,0,0,1,.34.17.21.21,0,0,0,.22,0,.41.41,0,0,0-.21-.79c-.39,0-.73.45-1,.85Zm-3-.55a.73.73,0,0,1,.7.8c0,.11-.05.16-.19.16l-1.36,0c.12-.65.48-1,.85-1m1.22,2.45a1.31,1.31,0,0,1-.91.4c-.56,0-1.19-.45-1.2-1.54,1,0,2-.11,2.09-.14s.19-.09.19-.25a1.24,1.24,0,0,0-1.2-1.22,1.65,1.65,0,0,0-1.18.58,2.06,2.06,0,0,0-.53,1.4,1.59,1.59,0,0,0,1.56,1.71,1.85,1.85,0,0,0,1.31-.78ZM285.61,248h-1.42v.2c.46,0,.5.14.38.52s-.43,1.25-.71,1.92c-.23-.58-.55-1.42-.76-2-.13-.34-.11-.41.32-.46V248h-1.64v.2c.43.06.5.12.68.58.38.93.74,1.84,1.11,2.8h.21c.44-1.19.87-2.18,1.13-2.78s.29-.55.7-.6Zm-5.69,3.21-.07-.21a1.2,1.2,0,0,1-.49.13c-.2,0-.47-.12-.47-.76v-2.06h.86a.23.23,0,0,0,.05-.31h-.91v-1.1h-.11l-.52.52V248h-.37l-.21.23,0,.08h.55v2.33c0,.63.28.95.78.95a.73.73,0,0,0,.34-.11Zm-3.2-5.4a.33.33,0,0,0-.34.32.15.15,0,0,0,.11.16.52.52,0,0,1,.49.49c0,.33-.23.51-.61.67l.08.22c.5-.13,1-.48,1-1a.8.8,0,0,0-.75-.82m-.23,5.68v-.2c-.46-.05-.5-.08-.5-.63v-1.54c0-.78-.4-1.22-1-1.22a1.3,1.3,0,0,0-.67.24l-.53.38v-.64a5.26,5.26,0,0,1-1.11.33v.18c.43.08.48.1.48.62v1.65c0,.53,0,.57-.59.63v.2h1.74v-.2c-.48-.05-.52-.08-.52-.63v-1.88a1.42,1.42,0,0,1,.87-.41c.54,0,.73.36.73.91v1.34c0,.55-.06.62-.53.67v.2Zm-4.56-2.6a5.81,5.81,0,0,0-.17-.85,1.77,1.77,0,0,0-.71-.14,1.1,1.1,0,0,0-1.22,1c0,.62.52.88,1,1.11s.63.37.63.73a.56.56,0,0,1-.57.56c-.48,0-.84-.47-1-1l-.21,0a3.61,3.61,0,0,0,.13,1,1.59,1.59,0,0,0,.92.27,1.2,1.2,0,0,0,1.32-1.1c0-.56-.41-.85-1-1.09-.36-.16-.68-.34-.68-.7a.52.52,0,0,1,.52-.55c.39,0,.67.32.83.79Zm-2.66,2.6v-.2c-.51-.05-.57-.1-.57-.64v-2.76a5.68,5.68,0,0,1-1.13.31v.19c.48.08.5.11.5.61v1.65c0,.54-.06.59-.56.64v.2Zm-.94-4.29a.41.41,0,0,0,0-.82.41.41,0,0,0,0,.82m-4.48,1a.73.73,0,0,1,.7.8c0,.11-.05.16-.19.16l-1.35,0c.12-.65.47-1,.84-1m1.22,2.45a1.31,1.31,0,0,1-.91.4c-.56,0-1.19-.45-1.19-1.54.95,0,1.95-.11,2.08-.14s.19-.09.19-.25a1.24,1.24,0,0,0-1.2-1.22,1.65,1.65,0,0,0-1.18.58,2.06,2.06,0,0,0-.53,1.4,1.59,1.59,0,0,0,1.56,1.71,1.85,1.85,0,0,0,1.31-.78Zm-4.45-1.9v-.87a4.57,4.57,0,0,1-1.13.33v.17c.46.07.5.1.5.63v1.65c0,.53-.06.58-.55.63v.2h1.84v-.2c-.62-.05-.66-.1-.66-.63v-1.46c.18-.45.43-.69.64-.69a.43.43,0,0,1,.34.17.19.19,0,0,0,.21,0,.43.43,0,0,0,.26-.39.44.44,0,0,0-.46-.4c-.39,0-.73.45-1,.85Zm-3-.55a.74.74,0,0,1,.71.8c0,.11-.05.16-.2.16l-1.35,0c.12-.65.47-1,.84-1m1.23,2.45a1.34,1.34,0,0,1-.92.4c-.56,0-1.18-.45-1.19-1.54.95,0,1.95-.11,2.09-.14s.18-.09.18-.25a1.23,1.23,0,0,0-1.2-1.22,1.65,1.65,0,0,0-1.17.58,2.06,2.06,0,0,0-.53,1.4,1.59,1.59,0,0,0,1.56,1.71,1.82,1.82,0,0,0,1.3-.78Zm-3.17.84v-.2c-.47,0-.53-.09-.53-.62v-1.4c0-1-.46-1.37-1.1-1.37a1.78,1.78,0,0,0-1.15.58v-2.68a10.6,10.6,0,0,1-1.17.28v.18c.52,0,.54.09.54.59v3.82c0,.53-.07.58-.55.62v.2h1.69v-.2c-.47-.05-.51-.11-.51-.62v-1.91a1.15,1.15,0,0,1,.83-.4c.54,0,.79.32.79,1v1.33c0,.52-.07.57-.53.62v.2Zm-4.21-.28-.07-.21a1.25,1.25,0,0,1-.5.13c-.2,0-.46-.12-.46-.76v-2.06h.85a.22.22,0,0,0,.05-.31h-.9v-1.1h-.11l-.52.52V248h-.37l-.22.23,0,.08h.56v2.33c0,.63.28.95.78.95a.76.76,0,0,0,.34-.11Zm-5.27-.75a.37.37,0,0,0-.39.33c0,.14.06.19.1.2a.57.57,0,0,1,.5.53c0,.31-.23.52-.61.68l.09.23c.48-.15,1-.49,1-1.11a.83.83,0,0,0-.73-.86m-.95,1v-.2c-.46-.05-.5-.08-.5-.63v-1.54c0-.78-.4-1.22-1-1.22a1.3,1.3,0,0,0-.67.24l-.53.38v-.64a5.26,5.26,0,0,1-1.11.33v.18c.43.08.48.1.48.62v1.65c0,.53,0,.57-.59.63v.2H243v-.2c-.47-.05-.52-.08-.52-.63v-1.88a1.42,1.42,0,0,1,.87-.41c.54,0,.73.36.73.91v1.34c0,.55-.06.62-.53.67v.2Zm-5.77-3.29a.73.73,0,0,1,.7.8c0,.11,0,.16-.19.16l-1.35,0c.12-.65.47-1,.84-1m1.22,2.45a1.31,1.31,0,0,1-.91.4c-.56,0-1.18-.45-1.19-1.54.95,0,1.95-.11,2.09-.14s.18-.09.18-.25a1.24,1.24,0,0,0-1.2-1.22,1.65,1.65,0,0,0-1.18.58,2.1,2.1,0,0,0-.52,1.4,1.58,1.58,0,0,0,1.56,1.71,1.83,1.83,0,0,0,1.3-.78Zm-3.17.84v-.2c-.47,0-.52-.09-.52-.62v-1.4c0-1-.46-1.37-1.11-1.37a1.78,1.78,0,0,0-1.14.58v-2.68a10.28,10.28,0,0,1-1.18.28v.18c.53,0,.55.09.55.59v3.82c0,.53-.08.58-.56.62v.2h1.7v-.2c-.47-.05-.51-.11-.51-.62v-1.91a1.14,1.14,0,0,1,.83-.4c.54,0,.78.32.78,1v1.33c0,.52-.06.57-.52.62v.2Zm-4.2-.28-.08-.21a1.2,1.2,0,0,1-.49.13c-.2,0-.47-.12-.47-.76v-2.06h.86a.22.22,0,0,0,0-.31h-.91v-1.1h-.11l-.52.52V248h-.37l-.21.23,0,.08h.55v2.33c0,.63.28.95.79.95a.7.7,0,0,0,.33-.11Zm-5.28-.75a.36.36,0,0,0-.38.33c0,.14.06.19.1.2a.57.57,0,0,1,.5.53c0,.31-.23.52-.62.68l.09.23c.49-.15,1.05-.49,1.05-1.11a.84.84,0,0,0-.74-.86m-.92,1v-.2c-.47,0-.52-.09-.52-.62v-1.4c0-1-.46-1.37-1.11-1.37a1.78,1.78,0,0,0-1.14.58v-2.68a10.28,10.28,0,0,1-1.18.28v.18c.53,0,.55.09.55.59v3.82c0,.53-.08.58-.56.62v.2h1.7v-.2c-.47-.05-.51-.11-.51-.62v-1.91a1.14,1.14,0,0,1,.83-.4c.54,0,.78.32.78,1v1.33c0,.52-.06.57-.52.62v.2Zm-4.2-.28-.08-.21a1.2,1.2,0,0,1-.49.13c-.2,0-.47-.12-.47-.76v-2.06h.86a.22.22,0,0,0,0-.31h-.91v-1.1h-.11l-.52.52V248h-.37l-.21.23,0,.08h.55v2.33c0,.63.28.95.79.95a.7.7,0,0,0,.33-.11Zm-2.42.28v-.2c-.51-.05-.57-.1-.57-.64v-2.76a5.68,5.68,0,0,1-1.13.31v.19c.48.08.5.11.5.61v1.65c0,.54-.05.59-.56.64v.2Zm-.94-4.29a.41.41,0,0,0,0-.82.41.41,0,0,0,0,.82m-1,.8h-1.45v.2c.52.07.57.12.47.53-.15.59-.37,1.29-.55,1.84h0c-.34-.85-.67-1.7-1-2.53h-.2c-.34.92-.64,1.74-.93,2.51h0c-.2-.62-.4-1.25-.58-1.87-.12-.36-.08-.4.4-.48V248H213v.2c.39,0,.46.11.6.52.33,1,.63,1.91.92,2.86h.23c.32-.89.64-1.69.95-2.49.33.84.66,1.63,1,2.49h.23c.37-1.09.72-2.15,1-2.78.17-.44.24-.54.64-.6Zm-7.44,3.21L211,251a1.25,1.25,0,0,1-.5.13c-.2,0-.46-.12-.46-.76v-2.06h.85a.22.22,0,0,0,0-.31h-.9v-1.1h-.12l-.51.52V248h-.37l-.22.23,0,.08h.56v2.33c0,.63.27.95.78.95a.7.7,0,0,0,.33-.11Zm-4-2.46v-.87a4.62,4.62,0,0,1-1.12.33v.17c.45.07.49.1.49.63v1.65c0,.53-.05.58-.55.63v.2h1.84v-.2c-.62-.05-.66-.1-.66-.63v-1.46c.18-.45.44-.69.65-.69a.43.43,0,0,1,.33.17.21.21,0,0,0,.22,0,.41.41,0,0,0-.21-.79c-.39,0-.73.45-1,.85Zm-2.68,2.07a1.14,1.14,0,0,1-.64.29.59.59,0,0,1-.57-.62c0-.29.18-.44.49-.58l.72-.34Zm1.26.36-.08-.21a.58.58,0,0,1-.29.09c-.13,0-.28-.12-.28-.48V249a1.16,1.16,0,0,0-.36-1,1,1,0,0,0-.65-.22,3.54,3.54,0,0,0-1.2.56c-.15.11-.26.2-.26.32a.39.39,0,0,0,.35.34.22.22,0,0,0,.23-.18,1.19,1.19,0,0,1,.25-.53.43.43,0,0,1,.35-.16c.41,0,.68.33.68.91v.14a6,6,0,0,1-1.24.52.8.8,0,0,0-.65.79,1,1,0,0,0,1,1c.24,0,.62-.3.94-.51a1,1,0,0,0,.19.36.67.67,0,0,0,.38.15Zm-3.57,0L202,251a1.25,1.25,0,0,1-.5.13c-.19,0-.46-.12-.46-.76v-2.06h.86a.22.22,0,0,0,0-.31h-.9v-1.1H201l-.52.52V248h-.37l-.21.23,0,.08h.55v2.33c0,.63.28.95.78.95a.73.73,0,0,0,.34-.11Zm-2.72-2.32a5.81,5.81,0,0,0-.17-.85,1.79,1.79,0,0,0-.72-.14,1.1,1.1,0,0,0-1.21,1c0,.62.52.88,1,1.11s.63.37.63.73a.56.56,0,0,1-.57.56c-.48,0-.84-.47-1-1l-.21,0a3.61,3.61,0,0,0,.13,1,1.59,1.59,0,0,0,.92.27,1.2,1.2,0,0,0,1.32-1.1c0-.56-.41-.85-1-1.09-.36-.16-.68-.34-.68-.7a.52.52,0,0,1,.52-.55c.39,0,.67.32.83.79Zm-6.49-.73c.7,0,1.08.76,1.08,1.7,0,1.1-.41,1.47-.91,1.47-.65,0-1.09-.76-1.09-1.77s.43-1.4.92-1.4m.08-.26a1.83,1.83,0,0,0-1.75,1.92,1.74,1.74,0,0,0,1.75,1.77,1.78,1.78,0,0,0,1.74-1.91,1.73,1.73,0,0,0-1.74-1.78m-1.46-.39c0-.47-.08-1.05-.08-1.42h-.17a.41.41,0,0,1-.4.2H187.7c-.23,0-.33,0-.44-.2h-.16c0,.44-.06,1-.1,1.44h.23a2.55,2.55,0,0,1,.26-.71c.1-.18.26-.25.93-.25h.49v3.94c0,.63-.06.71-.79.76v.22h2.3v-.22c-.76-.05-.83-.13-.83-.76v-3.94h.57c.6,0,.73.06.86.25a1.91,1.91,0,0,1,.26.71Z" transform="translate(-187 -245.75)"/><path class="cls-3" d="M269.47,322.41a.36.36,0,0,0-.38.33c0,.14.05.19.09.2a.58.58,0,0,1,.51.54c0,.3-.24.51-.62.67l.09.23c.49-.15,1-.49,1-1.1a.84.84,0,0,0-.74-.87m-.82,1v-.2c-.52-.05-.58-.1-.58-.63v-4.86a6.85,6.85,0,0,1-1.18.28v.19c.5,0,.55.06.55.61v3.78c0,.53-.07.58-.58.63v.2Zm-3.26-.67a1.11,1.11,0,0,1-.64.29.59.59,0,0,1-.57-.62c0-.28.18-.44.49-.58l.72-.34Zm1.26.36-.08-.21a.58.58,0,0,1-.28.09c-.14,0-.28-.12-.28-.48V321a1.16,1.16,0,0,0-.36-1,1,1,0,0,0-.66-.22,3.54,3.54,0,0,0-1.2.56c-.15.11-.26.2-.26.32a.39.39,0,0,0,.36.34.22.22,0,0,0,.23-.18,1.09,1.09,0,0,1,.24-.53.47.47,0,0,1,.36-.16c.4,0,.67.33.67.91v.14a5.53,5.53,0,0,1-1.24.52.8.8,0,0,0-.65.79,1,1,0,0,0,1,1,2.62,2.62,0,0,0,1-.51.79.79,0,0,0,.19.36.64.64,0,0,0,.37.15Zm-3.63.31v-.2c-.46-.05-.5-.08-.5-.63v-1.54c0-.78-.4-1.22-1-1.22a1.27,1.27,0,0,0-.67.24l-.53.38v-.64a5.35,5.35,0,0,1-1.12.33v.18c.44.08.48.1.48.62v1.65c0,.53,0,.57-.58.63v.2h1.74v-.2c-.48-.05-.52-.08-.52-.63v-1.88a1.42,1.42,0,0,1,.87-.41c.53,0,.73.36.73.91v1.34c0,.55-.06.62-.53.67v.2Zm-5.75-2.74v-.87a4.69,4.69,0,0,1-1.13.33v.17c.46.07.5.1.5.63v1.65c0,.53-.06.58-.55.63v.2h1.84v-.2c-.62-.05-.66-.1-.66-.63v-1.46c.18-.45.43-.69.64-.69a.45.45,0,0,1,.34.17.19.19,0,0,0,.21,0,.45.45,0,0,0,.26-.39.45.45,0,0,0-.47-.4c-.38,0-.72.45-1,.85Zm-3-.55a.73.73,0,0,1,.7.8c0,.11,0,.16-.19.16l-1.35,0c.12-.65.47-1,.84-1m1.22,2.45a1.3,1.3,0,0,1-.91.4c-.56,0-1.18-.45-1.19-1.54,1,0,2-.11,2.09-.14s.18-.09.18-.25a1.23,1.23,0,0,0-1.2-1.22,1.63,1.63,0,0,0-1.17.58,2.07,2.07,0,0,0-.53,1.4,1.58,1.58,0,0,0,1.56,1.71,1.82,1.82,0,0,0,1.3-.78Zm-3,.56-.07-.21a1.2,1.2,0,0,1-.49.13c-.2,0-.47-.12-.47-.76v-2.06h.86a.23.23,0,0,0,0-.31h-.91v-1.1h-.11l-.52.52V320h-.37l-.21.23,0,.08h.55v2.33c0,.63.28,1,.78,1a.73.73,0,0,0,.34-.11Zm-2.36.28v-.2c-.48-.07-.58-.14-.88-.6l-.78-1.18c.27-.39.46-.68.62-.88a1,1,0,0,1,.88-.43V320h-1.45v.2c.34,0,.4.08.26.33s-.31.51-.47.75l-.47-.74c-.15-.22-.12-.3.22-.34V320h-1.6v.2a.82.82,0,0,1,.79.51l.69,1.09c-.23.36-.45.68-.67,1a1.05,1.05,0,0,1-.9.53v.2h1.49v-.2c-.41-.07-.43-.14-.28-.41s.34-.59.51-.85l.6.94c.13.21.07.28-.28.32v.2Zm-5.39-3.29a.74.74,0,0,1,.71.8c0,.11-.05.16-.19.16l-1.36,0c.12-.65.47-1,.84-1m1.23,2.45a1.32,1.32,0,0,1-.92.4c-.56,0-1.18-.45-1.19-1.54.95,0,1.95-.11,2.09-.14s.18-.09.18-.25a1.23,1.23,0,0,0-1.2-1.22,1.65,1.65,0,0,0-1.17.58,2.07,2.07,0,0,0-.53,1.4,1.59,1.59,0,0,0,1.56,1.71,1.82,1.82,0,0,0,1.3-.78Zm-6.44-2.45a.73.73,0,0,1,.7.8c0,.11-.05.16-.19.16l-1.35,0c.12-.65.47-1,.84-1m1.22,2.45a1.31,1.31,0,0,1-.91.4c-.56,0-1.19-.45-1.19-1.54,1,0,2-.11,2.08-.14s.19-.09.19-.25a1.24,1.24,0,0,0-1.2-1.22,1.65,1.65,0,0,0-1.18.58,2.12,2.12,0,0,0-.52,1.4,1.58,1.58,0,0,0,1.55,1.71,1.83,1.83,0,0,0,1.31-.78Zm-3.17.84v-.2c-.47,0-.53-.09-.53-.62v-1.4c0-1-.45-1.37-1.1-1.37a1.78,1.78,0,0,0-1.14.58v-2.68a10.8,10.8,0,0,1-1.18.28v.18c.53.05.55.09.55.59v3.82c0,.53-.08.58-.56.62v.2h1.7v-.2c-.47-.05-.51-.11-.51-.62v-1.91a1.12,1.12,0,0,1,.83-.4c.54,0,.78.32.78,1v1.33c0,.52-.06.57-.52.62v.2Zm-4.21-.28-.07-.21a1.2,1.2,0,0,1-.49.13c-.2,0-.47-.12-.47-.76v-2.06h.86a.23.23,0,0,0,0-.31h-.91v-1.1h-.11l-.52.52V320h-.37l-.21.23,0,.08h.55v2.33c0,.63.28,1,.78,1a.73.73,0,0,0,.34-.11Z" transform="translate(-187 -245.75)"/><path class="cls-3" d="M341.72,298.41a.36.36,0,0,0-.38.33c0,.14.06.19.1.2a.57.57,0,0,1,.5.54c0,.3-.23.51-.62.67l.09.23c.49-.15,1-.49,1-1.1a.84.84,0,0,0-.74-.87m-.94,1v-.2c-.46-.05-.5-.08-.5-.63v-1.54c0-.78-.4-1.22-1-1.22a1.24,1.24,0,0,0-.66.24l-.54.38v-.64a5.09,5.09,0,0,1-1.11.33v.18c.43.08.48.1.48.62v1.65c0,.53,0,.57-.58.63v.2h1.73v-.2c-.47-.05-.52-.08-.52-.63v-1.88a1.44,1.44,0,0,1,.88-.41c.53,0,.72.36.72.91v1.34c0,.55-.05.62-.52.67v.2Zm-6.2-3.33c.7,0,1.07.76,1.07,1.7,0,1.1-.41,1.47-.9,1.47-.66,0-1.1-.76-1.1-1.76s.43-1.41.93-1.41m.08-.26a1.82,1.82,0,0,0-1.75,1.92,1.73,1.73,0,0,0,1.75,1.77,1.79,1.79,0,0,0,1.74-1.9,1.74,1.74,0,0,0-1.74-1.79m-2.18,3.59v-.2c-.51-.05-.56-.1-.56-.64v-2.76a5.78,5.78,0,0,1-1.14.31v.19c.48.08.5.11.5.61v1.65c0,.54,0,.59-.56.64v.2Zm-.93-4.29a.41.41,0,0,0,0-.82.41.41,0,0,0,0,.82m-1.46,1.69a5.81,5.81,0,0,0-.17-.85,1.79,1.79,0,0,0-.72-.14,1.1,1.1,0,0,0-1.21,1c0,.62.52.88,1,1.11s.63.37.63.73a.56.56,0,0,1-.57.56c-.48,0-.84-.47-1-1l-.21,0a3.61,3.61,0,0,0,.13.95,1.59,1.59,0,0,0,.92.27,1.2,1.2,0,0,0,1.32-1.1c0-.56-.41-.84-1-1.09-.36-.16-.68-.34-.68-.7a.52.52,0,0,1,.52-.55c.39,0,.67.32.82.79Zm-2.69,2.6v-.2c-.46-.05-.5-.08-.5-.63v-1.54c0-.78-.4-1.22-1-1.22a1.3,1.3,0,0,0-.67.24l-.53.38v-.64a5.26,5.26,0,0,1-1.11.33v.18c.43.08.48.1.48.62v1.65c0,.53,0,.57-.59.63v.2h1.74v-.2c-.47-.05-.52-.08-.52-.63v-1.88a1.42,1.42,0,0,1,.87-.41c.54,0,.73.36.73.91v1.34c0,.55-.06.62-.53.67v.2Zm-5.77-3.29a.73.73,0,0,1,.7.8c0,.11,0,.16-.19.16l-1.35,0c.12-.65.47-1,.84-1m1.22,2.45a1.31,1.31,0,0,1-.91.4c-.56,0-1.18-.45-1.19-1.54.95,0,1.95-.11,2.09-.14s.18-.09.18-.25a1.24,1.24,0,0,0-1.2-1.22,1.65,1.65,0,0,0-1.18.58,2.12,2.12,0,0,0-.52,1.4,1.58,1.58,0,0,0,1.56,1.71,1.83,1.83,0,0,0,1.3-.78Zm-3,.56-.07-.21a1.25,1.25,0,0,1-.5.13c-.2,0-.46-.12-.46-.76v-2.06h.86a.22.22,0,0,0,0-.31h-.9v-1.1h-.11l-.52.52V296h-.37l-.21.23,0,.08h.55v2.33c0,.63.28,1,.78,1a.76.76,0,0,0,.34-.11Zm-2.36.28v-.2c-.49-.07-.58-.14-.88-.6l-.78-1.18c.26-.39.46-.68.62-.88a1,1,0,0,1,.88-.43V296h-1.45v.2c.34,0,.4.08.25.33a7.89,7.89,0,0,1-.46.75l-.47-.74c-.15-.22-.12-.3.22-.34V296h-1.6v.2a.81.81,0,0,1,.78.51l.7,1.09c-.23.36-.45.68-.67,1a1.05,1.05,0,0,1-.9.53v.2h1.49v-.2c-.42-.07-.43-.14-.28-.41s.34-.59.51-.85l.6.94c.13.21.07.28-.28.32v.2Zm-5.39-3.29a.74.74,0,0,1,.71.8c0,.11,0,.16-.2.16l-1.35,0c.12-.65.47-1,.84-1m1.22,2.45a1.3,1.3,0,0,1-.91.4c-.56,0-1.18-.45-1.19-1.54.95,0,1.95-.11,2.09-.14s.18-.09.18-.25a1.23,1.23,0,0,0-1.2-1.22,1.63,1.63,0,0,0-1.17.58,2.07,2.07,0,0,0-.53,1.4,1.58,1.58,0,0,0,1.56,1.71,1.82,1.82,0,0,0,1.3-.78Zm-5.91-.2a.37.37,0,0,0-.39.34c0,.13.07.19.11.2a.56.56,0,0,1,.49.53c0,.31-.22.52-.61.68l.09.24c.49-.16,1-.5,1-1.12a.83.83,0,0,0-.73-.87m.16-2.24a.43.43,0,0,0-.45.45.44.44,0,0,0,.45.46.43.43,0,0,0,.43-.46.42.42,0,0,0-.43-.45m-1,3.28v-.2c-.51-.05-.57-.1-.57-.63v-4.86a6.76,6.76,0,0,1-1.19.28v.19c.51,0,.56.06.56.61v3.78c0,.53-.08.58-.58.63v.2Zm-3.25-.67a1.11,1.11,0,0,1-.64.29.59.59,0,0,1-.57-.62c0-.28.17-.44.49-.58l.72-.34Zm1.26.36-.08-.21a.58.58,0,0,1-.29.09c-.13,0-.28-.12-.28-.48V297a1.16,1.16,0,0,0-.36-1,1,1,0,0,0-.65-.22,3.54,3.54,0,0,0-1.2.56c-.15.11-.26.2-.26.32a.39.39,0,0,0,.35.34.22.22,0,0,0,.23-.18,1.31,1.31,0,0,1,.24-.53.49.49,0,0,1,.37-.16c.4,0,.67.33.67.91v.14a5.53,5.53,0,0,1-1.24.52.8.8,0,0,0-.65.79,1,1,0,0,0,1,1c.24,0,.62-.3.94-.51a.81.81,0,0,0,.2.36.61.61,0,0,0,.37.15Zm-3.62.31v-.2c-.51-.05-.56-.1-.56-.64v-2.76a5.6,5.6,0,0,1-1.14.31v.19c.48.08.51.11.51.61v1.65c0,.54-.06.59-.56.64v.2Zm-.93-4.29a.41.41,0,0,0,0-.82.41.41,0,0,0,0,.82m-2.65,1.55v-.87a4.57,4.57,0,0,1-1.13.33v.17c.46.07.5.1.5.63v1.65c0,.53-.06.58-.55.63v.2H298v-.2c-.62-.05-.66-.1-.66-.63v-1.46c.18-.45.43-.69.64-.69a.45.45,0,0,1,.34.17.19.19,0,0,0,.21,0,.43.43,0,0,0,.26-.39.44.44,0,0,0-.46-.4c-.39,0-.73.45-1,.85Zm-3-.55a.74.74,0,0,1,.71.8c0,.11-.05.16-.2.16l-1.35,0c.12-.65.47-1,.84-1m1.23,2.45a1.34,1.34,0,0,1-.92.4c-.56,0-1.18-.45-1.19-1.54.95,0,1.95-.11,2.09-.14s.18-.09.18-.25a1.23,1.23,0,0,0-1.2-1.22,1.65,1.65,0,0,0-1.17.58,2.07,2.07,0,0,0-.53,1.4,1.59,1.59,0,0,0,1.56,1.71,1.82,1.82,0,0,0,1.3-.78Zm-3,.56-.08-.21a1.2,1.2,0,0,1-.49.13c-.2,0-.47-.12-.47-.76v-2.06h.86a.22.22,0,0,0,.05-.31h-.91v-1.1h-.11l-.52.52V296h-.37l-.21.23,0,.08h.55v2.33c0,.63.28,1,.79,1a.7.7,0,0,0,.33-.11Zm-3.55-.39a1.11,1.11,0,0,1-.64.29.59.59,0,0,1-.57-.62c0-.28.18-.44.49-.58l.72-.34Zm1.27.36-.08-.21a.62.62,0,0,1-.29.09c-.14,0-.28-.12-.28-.48V297a1.16,1.16,0,0,0-.36-1,1,1,0,0,0-.66-.22,3.73,3.73,0,0,0-1.2.56c-.15.11-.25.2-.25.32a.38.38,0,0,0,.35.34.22.22,0,0,0,.23-.18,1.19,1.19,0,0,1,.24-.53.47.47,0,0,1,.36-.16c.4,0,.67.33.67.91v.14a5.33,5.33,0,0,1-1.24.52.8.8,0,0,0-.65.79,1,1,0,0,0,1,1,2.62,2.62,0,0,0,.95-.51.9.9,0,0,0,.19.36.67.67,0,0,0,.38.15Zm-3.63.31v-.2c-.45-.05-.52-.08-.52-.62v-1.55c0-.78-.39-1.22-1-1.22a1.08,1.08,0,0,0-.6.21,6.55,6.55,0,0,0-.67.45,1,1,0,0,0-.89-.66,1.18,1.18,0,0,0-.65.22c-.24.15-.42.29-.59.41v-.65a5.2,5.2,0,0,1-1.11.33v.18c.47.07.49.11.49.62v1.66c0,.52-.07.57-.6.62v.2h1.69v-.2c-.39-.05-.46-.1-.46-.62v-1.88a1.49,1.49,0,0,1,.87-.42c.49,0,.7.33.7.92v1.38c0,.53-.07.57-.57.62v.2h1.71v-.2c-.44-.05-.51-.1-.51-.6v-1.57a2.63,2.63,0,0,0,0-.33,1.45,1.45,0,0,1,.89-.42c.51,0,.71.36.71.93v1.34c0,.57-.09.6-.56.65v.2Zm-6.55,0v-.2c-.46-.05-.52-.08-.52-.62v-1.55c0-.78-.39-1.22-1-1.22a1.14,1.14,0,0,0-.6.21,6.5,6.5,0,0,0-.66.45,1,1,0,0,0-.89-.66,1.15,1.15,0,0,0-.65.22c-.24.15-.42.29-.59.41v-.65a5.2,5.2,0,0,1-1.11.33v.18c.46.07.49.11.49.62v1.66c0,.52-.07.57-.6.62v.2h1.69v-.2c-.4-.05-.46-.1-.46-.62v-1.88a1.49,1.49,0,0,1,.87-.42c.49,0,.7.33.7.92v1.38c0,.53-.07.57-.57.62v.2h1.71v-.2c-.44-.05-.51-.1-.51-.6v-1.57a2.63,2.63,0,0,0,0-.33,1.43,1.43,0,0,1,.89-.42c.51,0,.71.36.71.93v1.34c0,.57-.09.6-.56.65v.2Zm-6.5,0v-.2c-.51-.05-.56-.1-.56-.64v-2.76a5.78,5.78,0,0,1-1.14.31v.19c.48.08.5.11.5.61v1.65c0,.54-.05.59-.56.64v.2Zm-.93-4.29a.41.41,0,0,0,0-.82.41.41,0,0,0,0,.82m-2.75.8h-1.44v.2c.45.06.51.15.41.45-.17.51-.51,1.45-.73,2l-.73-2c-.11-.3-.07-.38.3-.44V296H266v.2c.44.06.52.16.69.6s.6,1.54.92,2.45a.55.55,0,0,1,0,.36,2.68,2.68,0,0,1-.24.55,1.7,1.7,0,0,1-.6.72c-.13.08-.2.16-.2.28a.46.46,0,0,0,.45.39.24.24,0,0,0,.26-.19,17,17,0,0,1,.82-2.17c.55-1.32.8-2,1-2.41s.29-.52.71-.58Zm-3.88,3.49v-.2c-.52-.05-.58-.1-.58-.63v-4.86a6.85,6.85,0,0,1-1.18.28v.19c.5,0,.55.06.55.61v3.78c0,.53-.07.58-.58.63v.2Zm-2.07,0v-.2c-.51-.05-.57-.1-.57-.63v-4.86a7,7,0,0,1-1.19.28v.19c.51,0,.55.06.55.61v3.78c0,.53-.07.58-.57.63v.2Zm-3.25-.67a1.17,1.17,0,0,1-.64.29.59.59,0,0,1-.57-.62c0-.28.17-.44.49-.58l.72-.34Zm1.26.36-.08-.21a.58.58,0,0,1-.29.09c-.13,0-.28-.12-.28-.48V297a1.16,1.16,0,0,0-.36-1,1,1,0,0,0-.65-.22,3.54,3.54,0,0,0-1.2.56c-.16.11-.26.2-.26.32a.39.39,0,0,0,.35.34.22.22,0,0,0,.23-.18,1.31,1.31,0,0,1,.24-.53.47.47,0,0,1,.36-.16c.4,0,.68.33.68.91v.14a5.53,5.53,0,0,1-1.24.52.8.8,0,0,0-.65.79,1,1,0,0,0,1,1c.24,0,.62-.3.94-.51a.9.9,0,0,0,.19.36.67.67,0,0,0,.38.15Zm-3.59-.08h-.23c-.3,0-.36-.08-.36-.48v-2.67a9.2,9.2,0,0,1-1.26.15v.18c.58.08.62.11.62.57v1.86a1.21,1.21,0,0,1-.86.39c-.36,0-.7-.2-.7-.91v-1.07c0-.54,0-.92,0-1.17a11.5,11.5,0,0,1-1.14.15v.18c.45.09.48.12.48.56v1.57c0,.86.46,1.19,1,1.19a1.19,1.19,0,0,0,.61-.2,6,6,0,0,0,.59-.42v.57l.05.05a9.63,9.63,0,0,1,1.18-.29Zm-4.12.11-.07-.21a1.3,1.3,0,0,1-.5.13c-.2,0-.46-.12-.46-.76v-2.06H254A.22.22,0,0,0,254,296h-.9v-1.1H253l-.52.52V296h-.36l-.22.23,0,.08h.55v2.33c0,.63.28,1,.79,1a.7.7,0,0,0,.33-.11Zm-4-2.46v-.87a4.62,4.62,0,0,1-1.12.33v.17c.45.07.49.1.49.63v1.65c0,.53,0,.58-.55.63v.2h1.84v-.2c-.62-.05-.66-.1-.66-.63v-1.46c.18-.45.44-.69.64-.69a.43.43,0,0,1,.34.17.21.21,0,0,0,.22,0,.41.41,0,0,0-.21-.79c-.39,0-.73.45-1,.85Zm-1.57,2.74v-.2c-.51-.05-.57-.1-.57-.64v-2.76a5.68,5.68,0,0,1-1.13.31v.19c.48.08.5.11.5.61v1.65c0,.54-.06.59-.56.64v.2Zm-.94-4.29a.41.41,0,0,0,0-.82.41.41,0,0,0,0,.82m-1,.8h-1.42v.2c.45.05.5.14.38.52s-.43,1.25-.71,1.92c-.23-.58-.55-1.42-.76-2-.13-.34-.11-.41.32-.46V296h-1.64v.2c.43.06.49.12.68.58.37.93.74,1.84,1.1,2.8h.22c.44-1.19.86-2.18,1.13-2.78s.28-.55.7-.6Zm-7.22.2a.73.73,0,0,1,.7.8c0,.11-.05.16-.19.16l-1.35,0c.12-.65.47-1,.84-1m1.22,2.45a1.31,1.31,0,0,1-.91.4c-.56,0-1.19-.45-1.19-1.54,1,0,2-.11,2.08-.14s.19-.09.19-.25a1.24,1.24,0,0,0-1.2-1.22,1.65,1.65,0,0,0-1.18.58,2.12,2.12,0,0,0-.52,1.4,1.58,1.58,0,0,0,1.55,1.71,1.83,1.83,0,0,0,1.31-.78Zm-3.17.84v-.2c-.47,0-.53-.09-.53-.62v-1.4c0-1-.45-1.37-1.1-1.37a1.78,1.78,0,0,0-1.14.58v-2.68a10.8,10.8,0,0,1-1.18.28v.18c.53.05.55.09.55.59v3.82c0,.53-.08.58-.56.62v.2h1.7v-.2c-.47-.05-.51-.11-.51-.62v-1.91a1.12,1.12,0,0,1,.83-.4c.54,0,.78.32.78,1v1.33c0,.52-.06.57-.52.62v.2Zm-4.21-.28-.07-.21a1.2,1.2,0,0,1-.49.13c-.2,0-.47-.12-.47-.76v-2.06h.86a.23.23,0,0,0,0-.31h-.91v-1.1h-.11l-.52.52V296h-.37l-.21.23,0,.08h.55v2.33c0,.63.28,1,.78,1a.73.73,0,0,0,.34-.11Z" transform="translate(-187 -245.75)"/><path class="cls-3" d="M278.93,274.41a.36.36,0,0,0-.39.33c0,.14.06.19.1.2a.57.57,0,0,1,.5.54c0,.3-.23.51-.61.67l.08.23c.49-.15,1.05-.49,1.05-1.1a.84.84,0,0,0-.73-.87m-2.3-2.26a.73.73,0,0,1,.7.8c0,.11,0,.16-.19.16l-1.35,0c.12-.65.47-1,.84-1m1.22,2.45a1.3,1.3,0,0,1-.91.4c-.56,0-1.18-.45-1.19-1.54.95,0,1.95-.11,2.09-.14s.18-.09.18-.25a1.23,1.23,0,0,0-1.2-1.22,1.63,1.63,0,0,0-1.17.58,2.07,2.07,0,0,0-.53,1.4,1.58,1.58,0,0,0,1.56,1.71,1.82,1.82,0,0,0,1.3-.78Zm-3.15.84v-.2c-.51-.05-.57-.1-.57-.63v-4.86a7,7,0,0,1-1.19.28v.19c.51,0,.55.06.55.61v3.78c0,.53-.07.58-.57.63v.2Zm-4.69-3a1.26,1.26,0,0,1,1.84,1.29c0,.93-.42,1.5-1.08,1.5a.76.76,0,0,1-.72-.45.67.67,0,0,1,0-.27Zm0-.24v-2.46a7.3,7.3,0,0,1-1.16.28v.18c.51.05.52.1.52.59v4.45a2.78,2.78,0,0,0,1.18.29,2,2,0,0,0,2-2,1.63,1.63,0,0,0-1.58-1.68,1,1,0,0,0-.33.08Zm-2.47,2.56a1.11,1.11,0,0,1-.64.29.59.59,0,0,1-.57-.62c0-.28.18-.44.49-.58l.72-.34Zm1.27.36-.08-.21a.62.62,0,0,1-.29.09c-.14,0-.28-.12-.28-.48V273a1.16,1.16,0,0,0-.36-1,1,1,0,0,0-.66-.22,3.73,3.73,0,0,0-1.2.56c-.15.11-.25.2-.25.32a.38.38,0,0,0,.35.34.22.22,0,0,0,.23-.18,1.19,1.19,0,0,1,.24-.53.47.47,0,0,1,.36-.16c.4,0,.67.33.67.91v.14a5.33,5.33,0,0,1-1.24.52.8.8,0,0,0-.65.79,1,1,0,0,0,1,1,2.62,2.62,0,0,0,.95-.51.9.9,0,0,0,.19.36.67.67,0,0,0,.38.15Zm-6.35-2.46a1.61,1.61,0,0,1,.8-.34c.59,0,1.07.48,1.07,1.34s-.44,1.48-1.12,1.48a1.13,1.13,0,0,1-.75-.31Zm0-.27v-.63a6.32,6.32,0,0,1-1.16.35v.19c.5.06.53.08.53.6v3.61c0,.53-.07.58-.58.63v.21h1.89v-.21c-.62-.06-.68-.1-.68-.71v-1a1.55,1.55,0,0,0,.55.14,2.28,2.28,0,0,0,2-2.18,1.43,1.43,0,0,0-1.42-1.51.86.86,0,0,0-.39.12Zm-1.37,3v-.2c-.52-.05-.58-.1-.58-.63v-4.86a6.85,6.85,0,0,1-1.18.28v.19c.5,0,.55.06.55.61v3.78c0,.53-.07.58-.58.63v.2Zm-3.26-.67a1.11,1.11,0,0,1-.64.29.59.59,0,0,1-.57-.62c0-.28.18-.44.49-.58l.72-.34Zm1.26.36-.08-.21a.58.58,0,0,1-.28.09c-.14,0-.28-.12-.28-.48V273a1.16,1.16,0,0,0-.36-1,1,1,0,0,0-.66-.22,3.54,3.54,0,0,0-1.2.56c-.15.11-.26.2-.26.32a.39.39,0,0,0,.36.34.22.22,0,0,0,.23-.18,1.09,1.09,0,0,1,.24-.53.47.47,0,0,1,.36-.16c.4,0,.67.33.67.91v.14a5.53,5.53,0,0,1-1.24.52.8.8,0,0,0-.65.79,1,1,0,0,0,1,1,2.62,2.62,0,0,0,1-.51.79.79,0,0,0,.19.36.64.64,0,0,0,.37.15Zm-6.34-2.46a1.58,1.58,0,0,1,.8-.34c.58,0,1.07.48,1.07,1.34s-.45,1.48-1.12,1.48a1.13,1.13,0,0,1-.75-.31Zm0-.27v-.63a6.56,6.56,0,0,1-1.16.35v.19c.5.06.53.08.53.6v3.61c0,.53-.07.58-.58.63v.21h1.89v-.21c-.62-.06-.68-.1-.68-.71v-1a1.49,1.49,0,0,0,.55.14,2.27,2.27,0,0,0,2-2.18,1.42,1.42,0,0,0-1.41-1.51.86.86,0,0,0-.39.12Zm-1.38,3v-.2c-.46-.05-.52-.08-.52-.62v-1.55c0-.78-.4-1.22-1-1.22a1.14,1.14,0,0,0-.6.21,6.5,6.5,0,0,0-.66.45,1,1,0,0,0-.89-.66,1.19,1.19,0,0,0-.66.22c-.24.15-.41.29-.58.41v-.65a5.2,5.2,0,0,1-1.11.33v.18c.46.07.49.11.49.62v1.66c0,.52-.08.57-.6.62v.2h1.68v-.2c-.39-.05-.45-.1-.45-.62v-1.88a1.49,1.49,0,0,1,.87-.42c.49,0,.7.33.7.92v1.38c0,.53-.08.57-.57.62v.2h1.71v-.2c-.44-.05-.51-.1-.51-.6v-1.57a1.42,1.42,0,0,0,0-.33,1.48,1.48,0,0,1,.9-.42c.5,0,.7.36.7.93v1.34c0,.57-.08.6-.56.65v.2Zm-6.5,0v-.2c-.51-.05-.57-.1-.57-.64v-2.76a5.5,5.5,0,0,1-1.13.31v.19c.48.08.5.11.5.61v1.65c0,.54,0,.59-.56.64v.2Zm-.94-4.29a.41.41,0,0,0,0-.82.41.41,0,0,0,0,.82m-4.48,1a.73.73,0,0,1,.7.8c0,.11-.05.16-.19.16l-1.35,0c.12-.65.47-1,.84-1m1.22,2.45a1.31,1.31,0,0,1-.91.4c-.56,0-1.19-.45-1.19-1.54,1,0,2-.11,2.08-.14s.19-.09.19-.25a1.24,1.24,0,0,0-1.2-1.22,1.65,1.65,0,0,0-1.18.58,2.12,2.12,0,0,0-.52,1.4,1.58,1.58,0,0,0,1.55,1.71,1.83,1.83,0,0,0,1.31-.78Zm-3.17.84v-.2c-.47,0-.53-.09-.53-.62v-1.4c0-1-.45-1.37-1.1-1.37a1.78,1.78,0,0,0-1.14.58v-2.68a10.8,10.8,0,0,1-1.18.28v.18c.53.05.55.09.55.59v3.82c0,.53-.08.58-.56.62v.2h1.7v-.2c-.47-.05-.51-.11-.51-.62v-1.91a1.12,1.12,0,0,1,.83-.4c.54,0,.78.32.78,1v1.33c0,.52-.06.57-.52.62v.2Zm-4.21-.28-.07-.21a1.2,1.2,0,0,1-.49.13c-.2,0-.47-.12-.47-.76v-2.06h.86a.23.23,0,0,0,0-.31h-.91v-1.1h-.11l-.52.52V272h-.37l-.21.23,0,.08h.55v2.33c0,.63.28,1,.78,1a.73.73,0,0,0,.34-.11Z" transform="translate(-187 -245.75)"/><path class="cls-3" d="M299.11,346.41a.36.36,0,0,0-.38.33c0,.14,0,.19.09.2a.57.57,0,0,1,.51.53c0,.31-.24.52-.62.68l.09.23c.49-.15,1.05-.49,1.05-1.1a.84.84,0,0,0-.74-.87M298,344.84a5.81,5.81,0,0,0-.17-.85,1.79,1.79,0,0,0-.72-.14,1.1,1.1,0,0,0-1.21,1c0,.62.52.88,1,1.11s.63.37.63.73a.56.56,0,0,1-.57.56c-.48,0-.84-.47-1-1l-.21,0a3.61,3.61,0,0,0,.13.95,1.59,1.59,0,0,0,.92.27,1.2,1.2,0,0,0,1.32-1.1c0-.56-.41-.85-1-1.09-.36-.16-.68-.34-.68-.7a.52.52,0,0,1,.52-.55c.39,0,.67.32.82.79Zm-2.64,2.21h-.22c-.31,0-.37-.08-.37-.48v-2.67a9,9,0,0,1-1.26.15v.18c.58.08.63.11.63.57v1.86a1.23,1.23,0,0,1-.87.39c-.36,0-.7-.2-.7-.91v-1.07c0-.54,0-.92,0-1.17a11.12,11.12,0,0,1-1.14.15v.18c.46.09.49.12.49.56v1.57c0,.86.45,1.19,1,1.19a1.22,1.22,0,0,0,.62-.2c.22-.14.4-.28.59-.42v.57l.05.05a9.5,9.5,0,0,1,1.17-.29Zm-8.07-2.94c.7,0,1.07.76,1.07,1.7,0,1.1-.41,1.47-.9,1.47-.66,0-1.1-.76-1.1-1.77s.43-1.4.93-1.4m.08-.26a1.82,1.82,0,0,0-1.75,1.92,1.73,1.73,0,0,0,1.75,1.77,1.79,1.79,0,0,0,1.74-1.91,1.74,1.74,0,0,0-1.74-1.78m-2.06,3.31-.07-.21a1.2,1.2,0,0,1-.49.13c-.2,0-.47-.12-.47-.76v-2.06h.86a.23.23,0,0,0,.05-.31h-.91v-1.1h-.11l-.52.52V344h-.37l-.21.23,0,.08h.55v2.33c0,.63.28,1,.78,1a.73.73,0,0,0,.34-.11Zm-4.32.28v-.2c-.51-.05-.57-.1-.57-.63v-4.86a6.76,6.76,0,0,1-1.19.28v.19c.51,0,.56.06.56.61v3.78c0,.53-.08.58-.58.63v.2Zm-3.25-.67a1.11,1.11,0,0,1-.64.29.59.59,0,0,1-.57-.62c0-.28.18-.44.49-.58l.72-.34Zm1.26.36-.08-.21a.58.58,0,0,1-.29.09c-.13,0-.28-.12-.28-.48V345a1.16,1.16,0,0,0-.36-1,1,1,0,0,0-.65-.22,3.54,3.54,0,0,0-1.2.56c-.15.11-.26.2-.26.32a.39.39,0,0,0,.35.34.23.23,0,0,0,.24-.18,1.09,1.09,0,0,1,.24-.53.47.47,0,0,1,.36-.16c.4,0,.67.33.67.91v.14a6,6,0,0,1-1.24.52.8.8,0,0,0-.65.79,1,1,0,0,0,1,1c.24,0,.62-.3.94-.51a.81.81,0,0,0,.2.36.61.61,0,0,0,.37.15Zm-3.63.31v-.2c-.46-.05-.5-.08-.5-.63v-1.54c0-.78-.4-1.22-1-1.22a1.24,1.24,0,0,0-.66.24l-.54.38v-.64a5.09,5.09,0,0,1-1.11.33v.18c.43.08.48.1.48.62v1.65c0,.53,0,.57-.58.63v.2h1.73v-.2c-.47-.05-.52-.08-.52-.63v-1.88a1.44,1.44,0,0,1,.88-.41c.53,0,.72.36.72.91v1.34c0,.55,0,.62-.52.67v.2Zm-5.75-2.74v-.87a4.83,4.83,0,0,1-1.13.33v.17c.46.07.5.1.5.63v1.65c0,.53-.06.58-.56.63v.2h1.84v-.2c-.61-.05-.65-.1-.65-.63v-1.46c.17-.45.43-.69.64-.69a.42.42,0,0,1,.33.17.21.21,0,0,0,.22,0,.41.41,0,0,0-.21-.79c-.38,0-.73.45-1,.85Zm-3-.55a.73.73,0,0,1,.7.8c0,.11-.05.16-.19.16l-1.35,0c.12-.65.47-1,.84-1m1.22,2.45a1.31,1.31,0,0,1-.91.4c-.56,0-1.18-.45-1.19-1.54.95,0,1.95-.11,2.09-.14s.18-.09.18-.25a1.24,1.24,0,0,0-1.2-1.22,1.65,1.65,0,0,0-1.18.58,2.12,2.12,0,0,0-.52,1.4,1.58,1.58,0,0,0,1.56,1.71,1.83,1.83,0,0,0,1.3-.78Zm-3,.56-.07-.21a1.25,1.25,0,0,1-.5.13c-.2,0-.46-.12-.46-.76v-2.06h.86a.22.22,0,0,0,0-.31h-.9v-1.1h-.11l-.52.52V344h-.37l-.22.23,0,.08h.55v2.33c0,.63.28,1,.78,1a.76.76,0,0,0,.34-.11Zm-2.36.28v-.2c-.49-.07-.58-.14-.88-.6l-.78-1.18c.26-.39.46-.68.62-.88a1,1,0,0,1,.88-.43V344h-1.45v.2c.34,0,.4.08.25.33a7.89,7.89,0,0,1-.46.75l-.47-.74c-.15-.22-.12-.3.22-.34V344h-1.6v.2a.81.81,0,0,1,.78.51l.7,1.09c-.23.36-.45.68-.67,1a1.05,1.05,0,0,1-.9.53v.2h1.49v-.2c-.42-.07-.43-.14-.28-.41s.34-.59.51-.85l.59.94c.14.21.08.28-.27.32v.2ZM257,344.15a.74.74,0,0,1,.71.8c0,.11-.05.16-.2.16l-1.35,0c.12-.65.47-1,.84-1m1.22,2.45a1.3,1.3,0,0,1-.91.4c-.56,0-1.18-.45-1.19-1.54.95,0,1.95-.11,2.09-.14s.18-.09.18-.25a1.23,1.23,0,0,0-1.2-1.22,1.63,1.63,0,0,0-1.17.58,2.07,2.07,0,0,0-.53,1.4,1.58,1.58,0,0,0,1.56,1.71,1.82,1.82,0,0,0,1.3-.78ZM253,344.84a4.75,4.75,0,0,0-.18-.85,1.7,1.7,0,0,0-.71-.14,1.1,1.1,0,0,0-1.21,1c0,.62.52.88,1,1.11s.63.37.63.73a.56.56,0,0,1-.57.56c-.48,0-.84-.47-1-1l-.21,0a3.61,3.61,0,0,0,.13.95,1.59,1.59,0,0,0,.92.27,1.2,1.2,0,0,0,1.32-1.1c0-.56-.41-.85-1-1.09-.36-.16-.68-.34-.68-.7a.52.52,0,0,1,.52-.55c.39,0,.67.32.82.79Zm-2.66,2.6v-.2c-.52-.05-.57-.1-.57-.64v-2.76a5.6,5.6,0,0,1-1.14.31v.19c.48.08.51.11.51.61v1.65c0,.54-.06.59-.56.64v.2Zm-.94-4.29a.41.41,0,0,0,0-.82.41.41,0,0,0,0,.82m-2.95,4-.07-.21a1.3,1.3,0,0,1-.5.13c-.2,0-.46-.12-.46-.76v-2.06h.85a.22.22,0,0,0,.05-.31h-.9v-1.1h-.12l-.51.52V344h-.37l-.22.23,0,.08h.56v2.33c0,.63.27,1,.78,1a.7.7,0,0,0,.33-.11Zm-3.54-.39a1.17,1.17,0,0,1-.65.29.59.59,0,0,1-.56-.62c0-.28.17-.44.48-.58s.56-.25.73-.34Zm1.26.36-.08-.21a.58.58,0,0,1-.29.09c-.14,0-.28-.12-.28-.48V345a1.16,1.16,0,0,0-.36-1,1,1,0,0,0-.65-.22,3.54,3.54,0,0,0-1.2.56c-.16.11-.26.2-.26.32a.39.39,0,0,0,.35.34.22.22,0,0,0,.23-.18,1.31,1.31,0,0,1,.24-.53.47.47,0,0,1,.36-.16c.4,0,.68.33.68.91v.14a6.18,6.18,0,0,1-1.25.52.8.8,0,0,0-.64.79,1,1,0,0,0,1,1c.24,0,.62-.3.94-.51a.9.9,0,0,0,.19.36.67.67,0,0,0,.38.15Zm-3.61.31v-.2c-.47,0-.53-.09-.53-.62v-1.4c0-1-.45-1.37-1.1-1.37a1.8,1.8,0,0,0-1.15.58v-2.68a10.6,10.6,0,0,1-1.17.28v.18c.53.05.54.09.54.59v3.82c0,.53-.07.58-.55.62v.2h1.7v-.2c-.48-.05-.52-.11-.52-.62v-1.91a1.16,1.16,0,0,1,.84-.4c.53,0,.78.32.78,1v1.33c0,.52-.06.57-.53.62v.2ZM236.48,344H235v.2c.52.07.57.12.47.53-.15.59-.37,1.29-.55,1.84h0c-.34-.85-.67-1.7-1-2.53h-.21c-.34.92-.64,1.74-.93,2.51h0c-.2-.62-.4-1.25-.58-1.87-.12-.36-.08-.4.4-.48V344H231v.2c.39.05.46.11.6.52.33,1,.63,1.91.92,2.86h.23c.32-.89.64-1.69,1-2.49.33.84.66,1.63,1,2.49h.22c.37-1.09.72-2.15,1-2.78.17-.44.24-.54.64-.6Z" transform="translate(-187 -245.75)"/><path class="cls-3" d="M295.09,400.45a.43.43,0,0,0,.45-.46.45.45,0,1,0-.89,0,.43.43,0,0,0,.44.46m-1.28-2.69a7.7,7.7,0,0,0-.18-.86,1.92,1.92,0,0,0-.71-.14,1.11,1.11,0,0,0-1.22,1c0,.61.52.88,1,1.1s.63.38.63.73a.56.56,0,0,1-.56.56c-.48,0-.84-.47-1-1l-.21,0a4.07,4.07,0,0,0,.13.94,1.62,1.62,0,0,0,.92.27,1.2,1.2,0,0,0,1.32-1.1c0-.55-.41-.84-1-1.09-.36-.15-.68-.34-.68-.7a.52.52,0,0,1,.52-.55c.4,0,.68.32.83.79Zm-2.64,2.2h-.23c-.3,0-.37-.07-.37-.47V396.8a9.06,9.06,0,0,1-1.25.15v.18c.57.08.62.11.62.57v1.86a1.21,1.21,0,0,1-.86.39c-.36,0-.71-.19-.71-.91V398c0-.54,0-.92,0-1.17a9.29,9.29,0,0,1-1.15.15v.18c.46.09.49.12.49.56v1.57c0,.86.46,1.19,1,1.19a1.11,1.11,0,0,0,.62-.2c.22-.13.41-.28.59-.41v.56l.05.05a9.63,9.63,0,0,1,1.18-.29Zm-7.29-.28a1.37,1.37,0,0,1-.77.27c-.51,0-1.1-.47-1.1-1.42,0-1.16.68-1.47,1-1.47a1,1,0,0,1,.83.41Zm1.24.27-.26,0c-.29,0-.35-.07-.35-.48v-4.78a8.36,8.36,0,0,1-1.25.28v.19c.58,0,.62.07.62.59v1.13a2.08,2.08,0,0,0-.53-.09,2,2,0,0,0-2.06,2,1.6,1.6,0,0,0,1.48,1.7,1.45,1.45,0,0,0,.62-.23l.49-.29v.52a7.49,7.49,0,0,1,1.24-.3Zm-4.3.41v-.21c-.46,0-.5-.08-.5-.63V398c0-.78-.4-1.22-1-1.22a1.27,1.27,0,0,0-.67.24l-.53.38v-.64a4.81,4.81,0,0,1-1.12.33v.18c.44.08.48.11.48.62v1.65c0,.53,0,.57-.58.63v.21h1.74v-.21c-.48,0-.52-.08-.52-.63v-1.88a1.46,1.46,0,0,1,.87-.4c.53,0,.73.36.73.91v1.33c0,.56-.06.62-.53.67v.21Zm-4.29-.4h-.22c-.3,0-.37-.07-.37-.47V396.8a9.06,9.06,0,0,1-1.25.15v.18c.57.08.62.11.62.57v1.86a1.23,1.23,0,0,1-.86.39c-.36,0-.71-.19-.71-.91V398c0-.54,0-.92,0-1.17a9.29,9.29,0,0,1-1.15.15v.18c.46.09.49.12.49.56v1.57c0,.86.46,1.19,1,1.19a1.11,1.11,0,0,0,.62-.2c.22-.13.41-.28.59-.41v.56l.05.05a10,10,0,0,1,1.17-.29ZM270.37,397c.69,0,1.07.76,1.07,1.69,0,1.1-.41,1.47-.91,1.47s-1.09-.75-1.09-1.76.43-1.4.93-1.4m.08-.27a1.83,1.83,0,0,0-1.76,1.92,1.74,1.74,0,0,0,1.76,1.77,1.77,1.77,0,0,0,1.73-1.9,1.74,1.74,0,0,0-1.73-1.79m-3.47.85v-.87a4.57,4.57,0,0,1-1.13.33v.17c.46.07.5.1.5.63v1.65c0,.53-.06.58-.55.63v.21h1.84v-.21c-.62,0-.66-.1-.66-.63v-1.46c.18-.45.43-.69.64-.69a.43.43,0,0,1,.34.17.17.17,0,0,0,.21,0,.46.46,0,0,0,.26-.4.44.44,0,0,0-.46-.4c-.39,0-.73.45-1,.85Zm-2.69,2.07a1.11,1.11,0,0,1-.64.29.58.58,0,0,1-.56-.61c0-.29.17-.44.48-.59l.72-.33Zm1.27.36-.08-.2a.7.7,0,0,1-.29.08c-.14,0-.28-.12-.28-.48V398a1.16,1.16,0,0,0-.36-1,1.09,1.09,0,0,0-.66-.22,3.73,3.73,0,0,0-1.2.56c-.15.12-.25.2-.25.32a.39.39,0,0,0,.35.35.22.22,0,0,0,.23-.19,1.26,1.26,0,0,1,.24-.52.44.44,0,0,1,.36-.16c.4,0,.67.32.67.9v.14a5.33,5.33,0,0,1-1.24.52.8.8,0,0,0-.64.8,1,1,0,0,0,1,1,2.45,2.45,0,0,0,.94-.51.84.84,0,0,0,.19.36.67.67,0,0,0,.38.15Zm-6.87-3a.73.73,0,0,1,.7.8c0,.11-.05.16-.19.16-.47,0-.91,0-1.35,0,.12-.64.47-1,.84-1m1.22,2.45a1.31,1.31,0,0,1-.91.4c-.56,0-1.19-.45-1.19-1.54.95,0,1.95-.11,2.08-.13s.19-.1.19-.26a1.25,1.25,0,0,0-1.2-1.22,1.63,1.63,0,0,0-1.18.59,2.06,2.06,0,0,0-.53,1.4,1.58,1.58,0,0,0,1.56,1.7,1.82,1.82,0,0,0,1.31-.77Zm-3.29,0a1.25,1.25,0,0,1-2.18-1c0-.84.46-1.28,1-1.28a1.14,1.14,0,0,1,.8.33c.07.06.11.08.15.08a.38.38,0,0,0,.27-.34.31.31,0,0,0-.13-.25,1.22,1.22,0,0,0-.71-.21,2.09,2.09,0,0,0-1.21.45,1.92,1.92,0,0,0-.8,1.57,1.59,1.59,0,0,0,1.6,1.67,1.91,1.91,0,0,0,1.36-.81Zm-4.44.21a1.11,1.11,0,0,1-.64.29.58.58,0,0,1-.57-.61c0-.29.18-.44.49-.59l.72-.33Zm1.27.36-.08-.2a.74.74,0,0,1-.29.08c-.14,0-.28-.12-.28-.48V398a1.16,1.16,0,0,0-.36-1,1.09,1.09,0,0,0-.66-.22,3.73,3.73,0,0,0-1.2.56c-.15.12-.25.2-.25.32a.38.38,0,0,0,.35.35.22.22,0,0,0,.23-.19,1.15,1.15,0,0,1,.24-.52.44.44,0,0,1,.36-.16c.4,0,.67.32.67.9v.14a5.33,5.33,0,0,1-1.24.52.8.8,0,0,0-.64.8,1,1,0,0,0,.95,1,2.48,2.48,0,0,0,.95-.51.84.84,0,0,0,.19.36.67.67,0,0,0,.38.15Zm-6.35-2.46a1.61,1.61,0,0,1,.8-.34c.59,0,1.08.48,1.08,1.34s-.45,1.48-1.13,1.48a1.13,1.13,0,0,1-.75-.31Zm0-.26v-.64a5.63,5.63,0,0,1-1.16.35v.19c.5.06.53.08.53.6v3.62c0,.52-.07.57-.58.62v.22h1.89v-.22c-.62-.06-.68-.1-.68-.7v-1.05a1.55,1.55,0,0,0,.55.14,2.27,2.27,0,0,0,2-2.17,1.43,1.43,0,0,0-1.42-1.52.86.86,0,0,0-.39.12Zm-1.69.44a6,6,0,0,0-.17-.86,1.92,1.92,0,0,0-.71-.14,1.11,1.11,0,0,0-1.22,1c0,.61.52.88,1,1.1s.63.38.63.73a.56.56,0,0,1-.57.56c-.48,0-.84-.47-1-1l-.21,0a4.07,4.07,0,0,0,.13.94,1.59,1.59,0,0,0,.92.27,1.2,1.2,0,0,0,1.32-1.1c0-.55-.41-.84-1-1.09-.36-.15-.68-.34-.68-.7a.52.52,0,0,1,.52-.55c.4,0,.68.32.83.79Zm-6-.7a.73.73,0,0,1,.7.8c0,.11-.05.16-.19.16-.47,0-.91,0-1.35,0,.12-.64.47-1,.84-1m1.22,2.45a1.31,1.31,0,0,1-.91.4c-.56,0-1.19-.45-1.19-1.54,1,0,2-.11,2.08-.13s.19-.1.19-.26a1.25,1.25,0,0,0-1.2-1.22,1.63,1.63,0,0,0-1.18.59,2.1,2.1,0,0,0-.52,1.4,1.58,1.58,0,0,0,1.55,1.7,1.81,1.81,0,0,0,1.31-.77Zm-3.17.85v-.21c-.47,0-.53-.09-.53-.62v-1.4c0-1-.45-1.37-1.1-1.37a1.74,1.74,0,0,0-1.14.59v-2.69a8.9,8.9,0,0,1-1.18.28v.18c.53.05.55.09.55.6v3.81c0,.53-.08.58-.56.62v.21h1.7v-.21c-.47,0-.51-.11-.51-.62v-1.9a1.1,1.1,0,0,1,.83-.41c.54,0,.78.33.78,1v1.33c0,.52-.06.57-.52.62v.21Zm-4.21-.29-.07-.21a1.05,1.05,0,0,1-.49.14c-.2,0-.47-.12-.47-.77v-2.06h.86a.23.23,0,0,0,0-.31h-.91v-1.1h-.11l-.52.53v.58h-.37l-.21.23,0,.08h.55v2.33c0,.63.28.95.78.95a.82.82,0,0,0,.34-.1Z" transform="translate(-187 -245.75)"/><path class="cls-3" d="M410.15,374.33a.35.35,0,0,0-.39.32c0,.14.06.19.1.2a.57.57,0,0,1,.5.54c0,.3-.24.51-.62.67l.09.23c.49-.14,1.05-.48,1.05-1.1a.82.82,0,0,0-.73-.86m-.81.64-.22,0c-.31,0-.37-.08-.37-.48l0-2.67a9.13,9.13,0,0,1-1.26.13v.18c.57.09.62.12.62.58l0,1.86a1.26,1.26,0,0,1-.87.38c-.36,0-.7-.21-.69-.92v-1.07c0-.54,0-.92,0-1.17a9,9,0,0,1-1.14.13v.19c.46.09.49.12.49.56l0,1.57c0,.86.44,1.2,1,1.2a1,1,0,0,0,.62-.19,5.71,5.71,0,0,0,.6-.41v.57l.05.05a7.94,7.94,0,0,1,1.18-.27Zm-5.67-3a.73.73,0,0,1,.68.81c0,.11-.05.16-.19.16h-1.35c.13-.65.49-1,.86-1m1.17,2.47a1.27,1.27,0,0,1-.92.38c-.56,0-1.17-.47-1.16-1.56.95,0,1.95-.07,2.09-.09s.19-.09.19-.25a1.23,1.23,0,0,0-1.18-1.24,1.57,1.57,0,0,0-1.18.56,2,2,0,0,0-.56,1.38,1.58,1.58,0,0,0,1.53,1.74,1.83,1.83,0,0,0,1.31-.75Zm-3.18.78V375c-.51-.06-.57-.11-.55-.66l.08-2.75a5.86,5.86,0,0,1-1.15.28v.19c.48.09.5.12.49.62l-.05,1.65c0,.54-.07.59-.58.62v.21Zm-.81-4.32a.41.41,0,0,0,0-.82.42.42,0,0,0-.42.41.41.41,0,0,0,.39.41m-1.32,4.25V375c-.51-.07-.58-.12-.56-.65l.18-4.86a5.8,5.8,0,0,1-1.19.24v.19c.5.06.55.09.53.63l-.14,3.78c0,.53-.09.57-.6.6v.21Zm-2.07-.07v-.21c-.51-.07-.57-.12-.54-.66l.12-2.76a4.71,4.71,0,0,1-1.15.26v.2c.48.1.5.13.48.63l-.07,1.64c0,.55-.08.59-.59.62v.2Zm-.75-4.32a.42.42,0,0,0,.43-.39.41.41,0,0,0-.38-.44.41.41,0,0,0-.43.4.43.43,0,0,0,.38.43M395.26,375v-.21c-.45-.07-.51-.11-.48-.64l.08-1.55c.05-.78-.32-1.24-.94-1.27a1.06,1.06,0,0,0-.61.17,7.75,7.75,0,0,0-.69.41,1,1,0,0,0-.85-.71,1.32,1.32,0,0,0-.67.18c-.24.14-.43.27-.6.38l0-.65a4.65,4.65,0,0,1-1.12.26v.19c.45.1.48.14.45.65l-.1,1.65c0,.52-.1.57-.63.58v.21l1.68.1,0-.21c-.39-.07-.45-.12-.43-.64l.11-1.88a1.53,1.53,0,0,1,.9-.37c.48,0,.67.37.64,1L392,374c0,.52-.1.56-.6.58v.21l1.71.09v-.2c-.44-.08-.51-.13-.48-.63l.09-1.56a1.78,1.78,0,0,0,0-.34,1.44,1.44,0,0,1,.92-.36c.51,0,.68.4.65,1l-.07,1.34c0,.57-.12.59-.6.61v.21Zm-8.2-.81L387,374a1.13,1.13,0,0,1-.5.1c-.2,0-.45-.16-.4-.81l.16-2,.86.07a.22.22,0,0,0,.07-.3l-.9-.08.09-1.09-.11,0-.56.48,0,.58-.37,0-.23.22,0,.08.55,0-.18,2.32c-.05.63.2,1,.7,1a.78.78,0,0,0,.35-.07Zm-2.44.1,0-.21c-.46-.09-.49-.12-.44-.66l.14-1.54c.07-.77-.28-1.25-.91-1.31a1.3,1.3,0,0,0-.69.18l-.57.32.06-.63a5.26,5.26,0,0,1-1.13.22l0,.18c.42.12.47.15.42.66l-.15,1.65c-.05.52-.1.56-.64.57l0,.2,1.72.16,0-.2c-.46-.09-.51-.13-.46-.67l.18-1.87a1.42,1.42,0,0,1,.91-.33c.53.05.69.43.64,1l-.13,1.33c-.05.55-.11.61-.59.61l0,.21Zm-5.41-3.83a.73.73,0,0,1,.62.87c0,.11-.06.15-.21.14l-1.35-.12c.19-.63.58-.93.94-.89m1,2.56a1.28,1.28,0,0,1-.95.3c-.56-.06-1.13-.57-1-1.65.95.07,1.95.09,2.09.08s.19-.07.21-.23a1.24,1.24,0,0,0-1.07-1.34,1.66,1.66,0,0,0-1.23.46,2.11,2.11,0,0,0-.67,1.34,1.59,1.59,0,0,0,1.38,1.86,1.88,1.88,0,0,0,1.38-.64Zm-3.23.51,0-.2c-.51-.11-.56-.16-.5-.7l.3-2.74a5.41,5.41,0,0,1-1.16.18l0,.19c.47.14.49.17.43.66l-.18,1.64c0,.54-.11.58-.62.58l0,.2Zm-.47-4.36a.42.42,0,0,0,.45-.36.41.41,0,0,0-.36-.46.42.42,0,0,0-.45.37.43.43,0,0,0,.36.45m-4,.87a1.27,1.27,0,0,1,1.7,1.48c-.1.93-.59,1.44-1.25,1.37a.75.75,0,0,1-.66-.52.63.63,0,0,1,0-.28Zm0-.24.26-2.45a5.9,5.9,0,0,1-1.18.16l0,.18c.51.1.52.15.46.65l-.48,4.42a2.88,2.88,0,0,0,1.14.41A2,2,0,0,0,375,371.4a1.63,1.63,0,0,0-1.38-1.84.74.74,0,0,0-.34.05Zm-1.67,3.06,0-.21c-.45-.09-.51-.13-.46-.66l.15-1.54c.08-.78-.27-1.25-.89-1.31a1.09,1.09,0,0,0-.62.14c-.21.1-.45.23-.7.38a1,1,0,0,0-.82-.74,1.29,1.29,0,0,0-.67.15c-.26.13-.45.26-.63.35l.07-.64a5.18,5.18,0,0,1-1.14.21l0,.18c.46.12.48.16.43.67l-.17,1.65c-.05.52-.13.56-.66.56l0,.2,1.68.17,0-.21c-.38-.08-.44-.14-.39-.66l.19-1.87a1.46,1.46,0,0,1,.91-.32c.48,0,.66.39.6,1l-.14,1.37c-.05.53-.13.56-.62.56l0,.2,1.71.17,0-.2c-.43-.1-.5-.15-.45-.65l.15-1.55a1.35,1.35,0,0,0,0-.34,1.46,1.46,0,0,1,.94-.33c.5.05.66.43.6,1l-.13,1.33c0,.56-.14.59-.62.59l0,.2Zm-7.52-1.39a1.13,1.13,0,0,1-.66.24.59.59,0,0,1-.52-.66c0-.29.21-.42.54-.54l.74-.28Zm1.24.46-.07-.21a.58.58,0,0,1-.29.06c-.14,0-.27-.14-.24-.5l.11-1.48a1.13,1.13,0,0,0-.28-1,1,1,0,0,0-.64-.27A3.62,3.62,0,0,0,362,369c-.16.1-.27.18-.28.3a.39.39,0,0,0,.33.37.22.22,0,0,0,.24-.16,1.32,1.32,0,0,1,.28-.51.47.47,0,0,1,.37-.13c.4,0,.65.38.6.95V370a5.46,5.46,0,0,1-1.27.42c-.45.12-.68.35-.71.74a1,1,0,0,0,.88,1,2.5,2.5,0,0,0,1-.43.87.87,0,0,0,.16.37.65.65,0,0,0,.37.18ZM358,369l.05-.87a4.29,4.29,0,0,1-1.14.27v.17c.45.09.49.13.46.66l-.1,1.65c0,.53-.08.57-.58.59v.21l1.83.1v-.21c-.61-.08-.65-.13-.62-.66l.09-1.46c.2-.44.46-.66.67-.65a.44.44,0,0,1,.33.19.17.17,0,0,0,.21,0,.43.43,0,0,0,.28-.37.45.45,0,0,0-.44-.43c-.38,0-.75.41-1,.79Zm-1.69,2.26-.22,0c-.3,0-.37-.08-.35-.48l.09-2.67a8.91,8.91,0,0,1-1.26.1v.18c.57.1.62.14.6.59l-.07,1.87a1.24,1.24,0,0,1-.87.35c-.36,0-.7-.22-.67-.93l0-1.07c0-.55,0-.92.07-1.17a9.08,9.08,0,0,1-1.15.1v.19c.45.1.48.14.46.58l-.05,1.56c0,.87.41,1.21.95,1.23a1.12,1.12,0,0,0,.62-.18c.23-.13.42-.26.61-.39l0,.56.05.05a9.29,9.29,0,0,1,1.19-.24Zm-6.11-3.13c.7,0,1.06.79,1,1.72,0,1.1-.44,1.46-.93,1.45-.66,0-1.08-.78-1.06-1.79s.46-1.39.95-1.38m.09-.26a1.82,1.82,0,0,0-1.79,1.88,1.74,1.74,0,0,0,1.71,1.81,1.79,1.79,0,0,0,1.78-1.87,1.74,1.74,0,0,0-1.7-1.82m-5,2.51a.36.36,0,0,0-.38.33c0,.13,0,.19.09.2a.58.58,0,0,1,.51.54c0,.3-.24.51-.62.67l.09.23c.48-.14,1-.49,1-1.1a.83.83,0,0,0-.73-.87M342.56,368l-.22.23,0,.08h.56v2.36c0,.53-.05.57-.56.62v.21l1.89,0v-.2c-.63-.06-.68-.08-.69-.67v-2.31h.86a.27.27,0,0,0,.08-.31h-.95v-.32a2.41,2.41,0,0,1,.18-1.22.45.45,0,0,1,.42-.24,1,1,0,0,1,.65.29.15.15,0,0,0,.22,0,.52.52,0,0,0,.15-.2.25.25,0,0,0-.05-.28.82.82,0,0,0-.63-.26,1.62,1.62,0,0,0-.88.43,2,2,0,0,0-.61.94,2.54,2.54,0,0,0-.08.66V368Zm-2.5.2c.7,0,1.09.74,1.11,1.68,0,1.09-.38,1.47-.87,1.48-.66,0-1.12-.73-1.14-1.74s.4-1.41.9-1.42m.07-.26a1.82,1.82,0,0,0-1.7,2,1.73,1.73,0,0,0,1.79,1.73,1.79,1.79,0,0,0,1.69-1.95,1.73,1.73,0,0,0-1.78-1.74m-3.85,3.41-.08-.2a1.18,1.18,0,0,1-.49.16c-.2,0-.47-.1-.5-.75l-.11-2,.86,0a.23.23,0,0,0,0-.32l-.9.05-.06-1.1h-.11l-.49.56,0,.58-.37,0-.2.24,0,.08.55,0,.12,2.33c0,.63.33.93.83.91a.89.89,0,0,0,.33-.12Zm-2.88-2.17a6.86,6.86,0,0,0-.23-.84,1.75,1.75,0,0,0-.72-.09,1.09,1.09,0,0,0-1.14,1.11c0,.61.57.84,1.07,1s.65.34.68.69a.56.56,0,0,1-.53.59c-.48,0-.87-.4-1-.92l-.2.06a3.58,3.58,0,0,0,.19.93,1.65,1.65,0,0,0,.93.21,1.2,1.2,0,0,0,1.24-1.19c0-.55-.46-.81-1.07-1-.37-.13-.71-.29-.73-.65a.53.53,0,0,1,.48-.59c.39,0,.69.28.88.74Zm-3.74,2.19a1.31,1.31,0,0,1-.74.34c-.51.05-1.13-.36-1.22-1.31-.11-1.15.54-1.52.9-1.56a1,1,0,0,1,.86.33Zm1.26.16h-.26c-.29,0-.35,0-.39-.45l-.44-4.76a6.9,6.9,0,0,1-1.21.39v.19c.58,0,.62,0,.67.54l.1,1.12a1.72,1.72,0,0,0-.53,0,2,2,0,0,0-1.87,2.16,1.61,1.61,0,0,0,1.62,1.57,1.49,1.49,0,0,0,.61-.29l.46-.33,0,.51a8.53,8.53,0,0,1,1.21-.41Zm-4.21.81,0-.21c-.51,0-.58,0-.64-.57l-.31-2.74a5.07,5.07,0,0,1-1.09.44l0,.19c.49,0,.52,0,.57.54l.19,1.64c.06.54,0,.6-.49.7l0,.21Zm-1.41-4.16a.41.41,0,0,0-.08-.82.41.41,0,0,0,.08.82m-.77,4.4,0-.21c-.46,0-.53,0-.6-.54l-.2-1.53c-.11-.78-.55-1.16-1.17-1.08a1.07,1.07,0,0,0-.57.29,6.53,6.53,0,0,0-.6.53.93.93,0,0,0-1-.53,1.13,1.13,0,0,0-.63.3c-.21.18-.37.34-.52.48l-.09-.64a4.9,4.9,0,0,1-1.05.47l0,.18c.47,0,.5.05.57.55l.21,1.65c.07.51,0,.57-.51.69l0,.2,1.67-.22,0-.21c-.39,0-.46,0-.53-.55l-.25-1.86a1.47,1.47,0,0,1,.81-.53c.49-.06.74.23.81.82l.19,1.36c.07.53,0,.58-.49.69l0,.21,1.7-.23,0-.21c-.44,0-.52,0-.59-.52l-.2-1.55a1.68,1.68,0,0,0-.07-.33,1.52,1.52,0,0,1,.83-.53c.5-.07.75.26.82.83l.18,1.32c.08.56,0,.61-.47.72l0,.2Zm-10.1-2a.73.73,0,0,1,.8.7c0,.12,0,.17-.17.19l-1.34.19c0-.66.34-1,.71-1.08m1.52,2.28a1.35,1.35,0,0,1-.86.51c-.56.06-1.23-.3-1.37-1.38.94-.15,1.92-.35,2-.39s.17-.12.15-.28a1.23,1.23,0,0,0-1.34-1.06,1.63,1.63,0,0,0-1.09.72,2.07,2.07,0,0,0-.35,1.46,1.58,1.58,0,0,0,1.76,1.5,1.81,1.81,0,0,0,1.19-.93Zm-3,1.23,0-.21c-.48,0-.54,0-.59-.56l-.15-1.39c-.1-1-.59-1.32-1.23-1.25a1.76,1.76,0,0,0-1.08.7l-.28-2.67a8.91,8.91,0,0,1-1.14.39l0,.19c.53,0,.55,0,.6.53l.39,3.8c.06.52,0,.58-.48.67l0,.2,1.68-.17,0-.21c-.47,0-.52,0-.57-.56l-.19-1.89a1.1,1.1,0,0,1,.78-.49c.54-.06.82.24.88.89l.14,1.33c.05.51,0,.57-.46.66l0,.21Zm-4.21.13-.09-.2a1.17,1.17,0,0,1-.49.17c-.2,0-.47-.08-.52-.72l-.17-2.05.85-.08a.22.22,0,0,0,0-.31l-.9.08-.09-1.1h-.11l-.48.57,0,.58-.36,0-.2.25,0,.07.55,0,.19,2.32c.05.63.36.92.86.88a.78.78,0,0,0,.33-.13Zm-4.36.62v-.2c-.47,0-.51-.06-.54-.6l-.09-1.54c0-.78-.47-1.19-1.1-1.16a1.37,1.37,0,0,0-.65.28l-.51.41,0-.64a4.57,4.57,0,0,1-1.09.39v.18c.44.06.49.08.52.59l.09,1.65c0,.53,0,.57-.55.66l0,.21,1.73-.1v-.21c-.48,0-.53-.05-.56-.59l-.11-1.88a1.46,1.46,0,0,1,.85-.46c.54,0,.75.32.78.87l.08,1.34c0,.55,0,.62-.49.69v.21Zm-4.31.23v-.2c-.52,0-.58-.08-.6-.62l-.12-2.76a4.74,4.74,0,0,1-1.12.36V372c.48.06.51.1.53.59l.07,1.65c0,.54,0,.59-.53.66v.21Zm-1.11-4.24a.41.41,0,0,0,.39-.43.41.41,0,1,0-.81,0,.42.42,0,0,0,.42.39m-2.78,4.1-.08-.2a1.18,1.18,0,0,1-.49.15c-.2,0-.47-.11-.48-.76l-.06-2.05.85,0a.22.22,0,0,0,0-.31l-.9,0,0-1.1h-.11l-.5.54,0,.58H294l-.21.24,0,.08.55,0,.07,2.33c0,.63.31.95.81.93a.92.92,0,0,0,.34-.11Zm-2.39,0h-.22c-.31,0-.37-.07-.38-.47l0-2.67a9.1,9.1,0,0,1-1.25.16v.19c.58.07.62.1.63.55l0,1.87a1.27,1.27,0,0,1-.86.4c-.36,0-.7-.18-.71-.89l0-1.08c0-.54,0-.92,0-1.16a11.16,11.16,0,0,1-1.14.16v.18c.46.08.49.11.5.55l0,1.57c0,.87.47,1.19,1,1.18a1.21,1.21,0,0,0,.61-.21c.22-.14.41-.29.59-.43v.57l0,.05a7.82,7.82,0,0,1,1.17-.31ZM287.57,372c.7,0,1.08.75,1.09,1.69s-.4,1.46-.9,1.47c-.66,0-1.1-.75-1.11-1.76s.43-1.4.92-1.4m.08-.27a1.82,1.82,0,0,0-1.74,1.93,1.74,1.74,0,0,0,1.76,1.76,1.79,1.79,0,0,0,1.73-1.91,1.74,1.74,0,0,0-1.75-1.78m-4.94.61a1.26,1.26,0,0,1,1.85,1.29c0,.93-.43,1.5-1.1,1.5a.76.76,0,0,1-.71-.45.74.74,0,0,1-.05-.28Zm0-.24v-2.46a6,6,0,0,1-1.16.27v.19c.52.05.53.09.53.59v4.45a2.78,2.78,0,0,0,1.18.29,2,2,0,0,0,2-2,1.63,1.63,0,0,0-1.57-1.68,1,1,0,0,0-.33.08Zm-2.46,2.54a1.17,1.17,0,0,1-.65.29.6.6,0,0,1-.56-.63c0-.28.18-.43.49-.58s.56-.24.73-.33Zm1.26.37-.08-.2a.7.7,0,0,1-.29.08c-.14,0-.28-.12-.28-.48l0-1.49a1.2,1.2,0,0,0-.35-1,1.09,1.09,0,0,0-.66-.22,3.44,3.44,0,0,0-1.2.55c-.16.11-.26.2-.26.32a.38.38,0,0,0,.35.34.22.22,0,0,0,.23-.18,1.09,1.09,0,0,1,.25-.52.44.44,0,0,1,.36-.16c.4,0,.67.33.66.91v.14a5.08,5.08,0,0,1-1.25.51.8.8,0,0,0-.65.79,1,1,0,0,0,.95,1,2.58,2.58,0,0,0,.95-.5.84.84,0,0,0,.19.36.73.73,0,0,0,.37.16ZM274.72,372a.73.73,0,0,1,.68.82c0,.11,0,.16-.19.16h-1.36c.14-.65.5-1,.87-1m1.16,2.48a1.28,1.28,0,0,1-.92.38c-.56,0-1.18-.48-1.16-1.57,1,0,2-.06,2.09-.08s.19-.09.2-.25a1.25,1.25,0,0,0-1.17-1.25,1.64,1.64,0,0,0-1.19.55,2.11,2.11,0,0,0-.57,1.39,1.57,1.57,0,0,0,1.52,1.74,1.79,1.79,0,0,0,1.32-.74Zm-2.74-2.71-1.42-.06v.2c.46.07.5.16.36.54s-.48,1.23-.78,1.88c-.21-.58-.5-1.44-.68-2-.12-.35-.1-.42.33-.45v-.2l-1.64-.07v.2c.43.08.49.14.65.61.34.94.67,1.87,1,2.84h.22c.49-1.17.95-2.14,1.24-2.73s.31-.54.72-.58Zm-5.72-.11c.69.05,1,.83,1,1.76-.07,1.1-.5,1.44-1,1.41-.66,0-1.05-.82-1-1.83s.52-1.37,1-1.34m.09-.25a1.81,1.81,0,0,0-1.86,1.8,1.73,1.73,0,0,0,1.63,1.88,1.78,1.78,0,0,0,1.85-1.79,1.73,1.73,0,0,0-1.62-1.89m-2.42,3.48,0-.21c-.45-.09-.51-.13-.45-.66l.15-1.54c.08-.78-.26-1.26-.88-1.32a1.18,1.18,0,0,0-.62.14c-.21.1-.46.23-.71.38a.94.94,0,0,0-.81-.74,1.14,1.14,0,0,0-.68.15c-.25.12-.44.25-.62.34l.07-.64a5.18,5.18,0,0,1-1.14.21l0,.18c.45.12.47.16.42.67l-.17,1.65c0,.52-.13.56-.66.55l0,.21,1.68.17,0-.2c-.39-.09-.45-.15-.39-.66l.19-1.88a1.53,1.53,0,0,1,.91-.32c.49.05.66.4.6,1l-.14,1.37c-.06.52-.13.55-.63.55l0,.21,1.7.17,0-.2c-.43-.1-.5-.15-.44-.65l.16-1.55c0-.16,0-.24,0-.34a1.42,1.42,0,0,1,.93-.32c.5.05.66.43.61,1l-.14,1.33c-.06.57-.15.59-.63.59l0,.2Zm-9.16-4.46a.74.74,0,0,1,.57.91c0,.11-.08.15-.22.12-.46-.06-.9-.12-1.34-.2.23-.62.63-.89,1-.83m.81,2.62a1.28,1.28,0,0,1-1,.24c-.55-.09-1.09-.63-.92-1.71.94.13,1.94.21,2.08.21s.2-.06.22-.22a1.23,1.23,0,0,0-1-1.4,1.59,1.59,0,0,0-1.25.38,2.08,2.08,0,0,0-.76,1.3,1.6,1.6,0,0,0,1.26,1.94,1.81,1.81,0,0,0,1.41-.55Zm-2.39-3.11-1.43-.25,0,.2c.5.16.54.21.37.61-.24.56-.58,1.2-.85,1.72h0c-.18-.9-.36-1.8-.51-2.67l-.21,0c-.49.85-.92,1.61-1.34,2.32h0c-.1-.65-.19-1.3-.27-1.94-.05-.38,0-.42.48-.41l0-.2-1.64-.28,0,.2c.37.12.43.18.5.62.16,1,.3,2,.43,3l.23,0c.45-.82.91-1.56,1.35-2.3.18.89.37,1.72.54,2.62l.22,0c.55-1,1.07-2,1.42-2.58.23-.41.32-.49.73-.49Zm-7.91,2-.05-.22a1,1,0,0,1-.5.09c-.2,0-.45-.17-.39-.81l.21-2.05.85.09a.22.22,0,0,0,.08-.31l-.9-.09.12-1.09-.11,0-.57.48-.06.58-.37,0-.24.21,0,.08.54.06-.23,2.31c-.07.63.18,1,.68,1a.73.73,0,0,0,.34-.07Zm-3.51-.72a1.13,1.13,0,0,1-.66.24.59.59,0,0,1-.52-.66c0-.28.21-.42.53-.54.17-.07.57-.21.74-.29Zm1.24.45-.07-.22a.57.57,0,0,1-.29.07c-.14,0-.27-.14-.25-.5l.11-1.48a1.17,1.17,0,0,0-.29-1,1,1,0,0,0-.64-.26,3.42,3.42,0,0,0-1.24.47c-.15.1-.26.18-.27.3a.39.39,0,0,0,.32.37.23.23,0,0,0,.25-.17,1.2,1.2,0,0,1,.27-.51.46.46,0,0,1,.37-.13c.4,0,.65.37.61.95v.14a5.38,5.38,0,0,1-1.27.43c-.45.12-.68.35-.7.75a1,1,0,0,0,.88,1,2.52,2.52,0,0,0,1-.45.81.81,0,0,0,.17.38.67.67,0,0,0,.36.17Zm-3.62.05v-.2c-.47-.06-.53-.11-.51-.64l.06-1.4c0-1-.39-1.39-1-1.41a1.72,1.72,0,0,0-1.17.53l.11-2.68a9.15,9.15,0,0,1-1.18.23v.18c.53.07.54.11.52.61l-.16,3.82c0,.52-.1.57-.58.59v.21l1.7.07v-.21c-.47-.07-.5-.13-.48-.64l.08-1.9a1.08,1.08,0,0,1,.85-.37c.53,0,.77.36.74,1l-.06,1.33c0,.52-.08.57-.55.59v.21Zm-4-3.66-1.45,0v.2c.52.08.57.13.46.54-.15.59-.38,1.28-.57,1.83h0c-.33-.86-.65-1.71-.93-2.54h-.21c-.35.92-.65,1.74-1,2.5h0c-.19-.61-.38-1.25-.56-1.87-.11-.36-.07-.41.41-.48V368l-1.65,0v.2c.39.06.46.12.6.53.31,1,.61,1.92.88,2.87h.23c.33-.88.66-1.68,1-2.47.32.84.63,1.63.94,2.5h.23c.38-1.08.74-2.14,1-2.77.18-.44.25-.53.65-.59Z" transform="translate(-187 -245.75)"/></g></svg>