<svg id="Layer_1" data-name="Layer 1" xmlns="http://www.w3.org/2000/svg" xmlns:xlink="http://www.w3.org/1999/xlink" viewBox="0 0 40.8 512.48"><defs><style>.cls-1,.cls-4{fill:none;}.cls-2{clip-path:url(#clip-path);}.cls-3{fill:#231f20;}.cls-4{stroke:#231f20;stroke-width:0.25px;}</style><clipPath id="clip-path" transform="translate(-188.56 -24.52)"><rect class="cls-1" x="188.56" y="24.52" width="40.8" height="512.48"/></clipPath></defs><title>SoS Text 4</title><g class="cls-2"><path class="cls-3" d="M223.14,28.14a2,2,0,0,1,1-.42c.73,0,1.33.59,1.33,1.65s-.55,1.84-1.39,1.84a1.38,1.38,0,0,1-.93-.39Zm0-.33V27a8.1,8.1,0,0,1-1.43.42v.24c.61.08.65.1.65.74v4.48c0,.66-.09.72-.72.78V34H224v-.26c-.78-.07-.85-.12-.85-.87v-1.3a1.91,1.91,0,0,0,.69.17A2.79,2.79,0,0,0,226.29,29a1.76,1.76,0,0,0-1.75-1.87,1.23,1.23,0,0,0-.49.14ZM219,27.45c.86,0,1.33.94,1.33,2.1,0,1.36-.51,1.82-1.12,1.82-.82,0-1.36-.93-1.36-2.18s.54-1.74,1.15-1.74m.1-.32a2.25,2.25,0,0,0-2.17,2.37,2.14,2.14,0,0,0,2.17,2.19,2.2,2.2,0,0,0,2.15-2.36,2.15,2.15,0,0,0-2.15-2.2m-2.55,4.09-.09-.26a1.38,1.38,0,0,1-.61.17c-.25,0-.58-.15-.58-.95V27.63h1.06a.28.28,0,0,0,.06-.39h-1.12V25.89l-.14,0-.64.65v.72H214l-.26.29,0,.1h.68v2.89c0,.78.35,1.17,1,1.17a1.14,1.14,0,0,0,.42-.12Zm-5.43.35v-.25c-.57-.06-.65-.1-.65-.76V28.64c0-1-.48-1.51-1.25-1.51a1.37,1.37,0,0,0-.75.25,9.3,9.3,0,0,0-.82.56,1.17,1.17,0,0,0-1.1-.81,1.42,1.42,0,0,0-.81.26c-.3.19-.52.37-.73.51v-.8a6.45,6.45,0,0,1-1.37.4v.23c.57.09.6.14.6.77v2.06c0,.64-.09.7-.74.76v.25h2.09v-.25c-.49-.06-.57-.12-.57-.76V28.22a1.91,1.91,0,0,1,1.08-.51c.61,0,.87.41.87,1.14v1.71c0,.65-.09.7-.71.76v.25h2.12v-.25c-.54-.06-.63-.12-.63-.74V28.64a2.34,2.34,0,0,0,0-.42,1.86,1.86,0,0,1,1.11-.51c.63,0,.87.45.87,1.15v1.66c0,.7-.11.74-.69.8v.25Zm-10.39-4.12c.86,0,1.33.94,1.33,2.1,0,1.36-.51,1.82-1.12,1.82-.81,0-1.36-.93-1.36-2.18s.54-1.74,1.15-1.74m.1-.32a2.25,2.25,0,0,0-2.17,2.37,2.14,2.14,0,0,0,2.17,2.19,2.2,2.2,0,0,0,2.15-2.36,2.15,2.15,0,0,0-2.15-2.2m-4.29,1V27.1a6,6,0,0,1-1.4.4v.22c.57.08.62.12.62.77v2.06c0,.65-.07.71-.69.77v.25h2.28v-.25c-.76-.06-.81-.12-.81-.77V28.73c.22-.56.53-.85.79-.85a.54.54,0,0,1,.42.21.22.22,0,0,0,.26,0,.56.56,0,0,0,.32-.49.55.55,0,0,0-.57-.49c-.48,0-.9.55-1.2,1Zm-4.29-.93-.27.29,0,.1h.69v2.93c0,.65-.07.7-.7.76v.25h2.34v-.24c-.79-.08-.86-.11-.86-.84V27.63h1.08a.36.36,0,0,0,.09-.39h-1.17v-.39a3,3,0,0,1,.23-1.51.58.58,0,0,1,.53-.3,1.23,1.23,0,0,1,.8.37.18.18,0,0,0,.27,0,.57.57,0,0,0,.19-.24.33.33,0,0,0-.05-.35,1.11,1.11,0,0,0-.79-.33,2.1,2.1,0,0,0-1.09.53,2.43,2.43,0,0,0-.76,1.16,2.81,2.81,0,0,0-.11.82v.21Z" transform="translate(-188.56 -24.52)"/><path class="cls-3" d="M228.81,537a.54.54,0,0,0,.55-.57.56.56,0,1,0-1.11,0,.54.54,0,0,0,.56.57m-1.36-.12v-.26c-.57-.06-.64-.09-.64-.76V534c0-1-.49-1.52-1.26-1.52a1.38,1.38,0,0,0-.75.26c-.24.15-.53.33-.82.55a1.19,1.19,0,0,0-1.1-.81,1.43,1.43,0,0,0-.81.27c-.3.19-.52.37-.73.5v-.8a6,6,0,0,1-1.37.41V533c.57.09.6.13.6.77v2.05c0,.65-.09.7-.74.76v.26h2.09v-.26c-.49-.06-.57-.11-.57-.76v-2.33a1.86,1.86,0,0,1,1.08-.52c.61,0,.87.41.87,1.14v1.71c0,.66-.09.7-.71.76v.26h2.12v-.26c-.54-.06-.63-.11-.63-.74V534a2.34,2.34,0,0,0,0-.42,1.82,1.82,0,0,1,1.11-.52c.63,0,.87.45.87,1.15v1.66c0,.71-.11.74-.69.8v.26Zm-10.39-4.12c.86,0,1.33.94,1.33,2.1,0,1.36-.5,1.81-1.12,1.81-.81,0-1.36-.93-1.36-2.18s.54-1.73,1.15-1.73m.1-.33a2.26,2.26,0,0,0-2.17,2.38,2.14,2.14,0,0,0,2.17,2.19,2.2,2.2,0,0,0,2.15-2.36,2.15,2.15,0,0,0-2.15-2.21m-2.55,4.1-.09-.26a1.38,1.38,0,0,1-.61.17c-.25,0-.58-.15-.58-1v-2.54h1.06a.28.28,0,0,0,.06-.39h-1.12v-1.36l-.13,0-.65.66v.72h-.45l-.27.29,0,.1h.68v2.88c0,.78.35,1.18,1,1.18a1,1,0,0,0,.42-.13Zm-2.92,0-.09-.26a1.42,1.42,0,0,1-.61.17c-.25,0-.58-.15-.58-1v-2.54h1.06a.28.28,0,0,0,.06-.39h-1.12v-1.36l-.14,0-.64.66v.72h-.46l-.27.29,0,.1h.69v2.88c0,.78.34,1.18,1,1.18a.94.94,0,0,0,.41-.13Zm-5.46-3.77c.86,0,1.33.94,1.33,2.1,0,1.36-.51,1.81-1.12,1.81-.82,0-1.36-.93-1.36-2.18s.53-1.73,1.15-1.73m.1-.33a2.25,2.25,0,0,0-2.17,2.38,2.14,2.14,0,0,0,2.17,2.19,2.2,2.2,0,0,0,2.15-2.36,2.15,2.15,0,0,0-2.15-2.21m-6.16.74a1.65,1.65,0,0,1,.77-.18,1.58,1.58,0,0,1,1.52,1.78c0,1.15-.52,1.85-1.35,1.85a.93.93,0,0,1-.88-.55.8.8,0,0,1-.06-.34Zm0-.29v-3.06a8,8,0,0,1-1.44.35v.23c.64.06.66.12.66.73v5.51a3.41,3.41,0,0,0,1.45.36,2.46,2.46,0,0,0,2.49-2.49,2,2,0,0,0-2-2.08,1.05,1.05,0,0,0-.41.1Zm-6.37-.12c.86,0,1.33.94,1.33,2.1,0,1.36-.51,1.81-1.12,1.81-.82,0-1.36-.93-1.36-2.18s.53-1.73,1.15-1.73m.1-.33a2.25,2.25,0,0,0-2.17,2.38A2.14,2.14,0,0,0,193.9,537a2.2,2.2,0,0,0,2.15-2.36,2.15,2.15,0,0,0-2.15-2.21m-2.55,4.1-.09-.26a1.43,1.43,0,0,1-.62.17c-.24,0-.57-.15-.57-1v-2.54h1.06a.28.28,0,0,0,.06-.39h-1.12v-1.36l-.14,0-.64.66v.72h-.46l-.27.29,0,.1h.69v2.88c0,.78.34,1.18,1,1.18a.94.94,0,0,0,.41-.13Z" transform="translate(-188.56 -24.52)"/></g><line class="cls-4" x1="20.6" y1="14.82" x2="20.6" y2="498.17"/></svg>