<svg id="Layer_1" data-name="Layer 1" xmlns="http://www.w3.org/2000/svg" xmlns:xlink="http://www.w3.org/1999/xlink" viewBox="0 0 407.94 11.21"><defs><style>.cls-1,.cls-4{fill:none;}.cls-2{clip-path:url(#clip-path);}.cls-3{fill:#231f20;}.cls-4{stroke:#231f20;stroke-width:0.25px;}</style><clipPath id="clip-path" transform="translate(-142.06 -399.79)"><rect class="cls-1" x="142.06" y="399.79" width="407.94" height="11.21"/></clipPath></defs><title>SoS Text 3</title><g class="cls-2"><path class="cls-3" d="M181.81,407.64l-.1-.31a1.63,1.63,0,0,1-.72.19c-.3,0-.68-.18-.68-1.12v-3h1.24a.35.35,0,0,0,.08-.46h-1.32v-1.54l-.16,0-.74.78V403h-2.19v-.3a3.71,3.71,0,0,1,.28-1.93.7.7,0,0,1,.62-.34,1.41,1.41,0,0,1,.89.4c.11.11.19.11.28.05a.88.88,0,0,0,.28-.3.39.39,0,0,0-.08-.42,1.28,1.28,0,0,0-.87-.35,2.55,2.55,0,0,0-1.27.62,2.7,2.7,0,0,0-.93,1.39,3.17,3.17,0,0,0-.11.89V403h-.57l-.3.33.06.13h.81v3.39c0,.73-.08.82-.81.9v.3h2.58v-.3c-.78-.07-.86-.16-.86-.91v-3.38h2.19v3.36c0,.91.4,1.37,1.13,1.37A1,1,0,0,0,181,408Zm-9-4.38a1.06,1.06,0,0,1,1,1.16c0,.17-.07.23-.28.23-.67,0-1.3,0-1.95,0,.17-.94.68-1.43,1.21-1.43m1.77,3.55a1.88,1.88,0,0,1-1.31.58c-.81,0-1.72-.65-1.73-2.23,1.38,0,2.82-.16,3-.19s.27-.14.27-.37a1.79,1.79,0,0,0-1.74-1.76,2.36,2.36,0,0,0-1.7.84,3,3,0,0,0-.76,2,2.29,2.29,0,0,0,2.25,2.46,2.64,2.64,0,0,0,1.89-1.12ZM170.05,408v-.3c-.75-.07-.84-.14-.84-.9v-7a8.77,8.77,0,0,1-1.71.41v.28c.73.06.8.09.8.88v5.47c0,.76-.1.83-.83.9v.3Zm-5.65,0v-.3c-.66-.07-.75-.11-.75-.89v-2.23c0-1.14-.57-1.77-1.47-1.77a1.62,1.62,0,0,0-.87.3,8.58,8.58,0,0,0-1,.65,1.37,1.37,0,0,0-1.28-1,1.76,1.76,0,0,0-.95.31c-.35.22-.61.43-.85.59v-.94a7,7,0,0,1-1.61.48v.26c.68.11.71.17.71.91v2.39c0,.75-.1.82-.87.89v.3h2.44v-.3c-.56-.07-.66-.14-.66-.89v-2.72a2.16,2.16,0,0,1,1.26-.6c.71,0,1,.47,1,1.33v2c0,.76-.1.82-.82.89v.3h2.48v-.3c-.64-.07-.74-.14-.74-.87v-2.25a3,3,0,0,0,0-.49,2.13,2.13,0,0,1,1.3-.6c.73,0,1,.52,1,1.34v1.94c0,.82-.13.86-.81.93v.3Zm-12.13-4.81c1,0,1.56,1.1,1.56,2.45,0,1.59-.59,2.12-1.31,2.12-1,0-1.59-1.09-1.59-2.55,0-1.3.63-2,1.34-2m.12-.38a2.63,2.63,0,0,0-2.53,2.77,2.5,2.5,0,0,0,2.53,2.56,2.57,2.57,0,0,0,2.51-2.75,2.5,2.5,0,0,0-2.51-2.58m-5,1.22V402.8a6.19,6.19,0,0,1-1.63.48v.25c.66.09.72.14.72.9v2.4c0,.76-.08.83-.8.9v.3h2.66v-.3c-.89-.07-1-.14-1-.9v-2.12c.25-.65.62-1,.92-1a.63.63,0,0,1,.49.24c.07.07.17.08.31,0a.59.59,0,0,0-.3-1.14c-.55,0-1.05.64-1.4,1.22Zm-5-1.08-.31.33,0,.12h.81v3.41c0,.76-.08.82-.82.89v.3h2.73v-.29c-.91-.09-1-.12-1-1v-3.33h1.25a.41.41,0,0,0,.11-.45h-1.36v-.47a3.61,3.61,0,0,1,.26-1.76.69.69,0,0,1,.62-.34,1.47,1.47,0,0,1,.93.42.21.21,0,0,0,.32,0,.77.77,0,0,0,.22-.28.39.39,0,0,0-.06-.4,1.3,1.3,0,0,0-.92-.4,2.39,2.39,0,0,0-1.27.63,2.82,2.82,0,0,0-.89,1.35,3.3,3.3,0,0,0-.13,1V403Z" transform="translate(-142.06 -399.79)"/><path class="cls-3" d="M550,407.62l-.11-.3a1.63,1.63,0,0,1-.71.19c-.29,0-.67-.17-.67-1.11v-3h1.23a.32.32,0,0,0,.07-.45h-1.3v-1.59l-.16,0-.76.76V403h-.53l-.31.33,0,.12h.79v3.36c0,.92.41,1.38,1.14,1.38a1.21,1.21,0,0,0,.48-.15Zm-3.47.41v-.3c-.68-.06-.77-.13-.77-.89v-2c0-1.38-.65-2-1.59-2a2.57,2.57,0,0,0-1.66.84v-3.89a12.11,12.11,0,0,1-1.7.41v.27c.77.07.79.12.79.85v5.52c0,.76-.1.83-.8.89v.3h2.45v-.3c-.68-.07-.74-.15-.74-.89v-2.75a1.66,1.66,0,0,1,1.21-.59c.77,0,1.13.47,1.13,1.42v1.92c0,.75-.09.82-.76.89v.3Zm-8.63.13a2.89,2.89,0,0,1,1.11.15.83.83,0,0,1,.53.82c0,.72-.57,1.29-1.67,1.29-.85,0-1.52-.48-1.52-1.1a1.27,1.27,0,0,1,.53-.91,1.41,1.41,0,0,1,1-.25m-.26-5c.66,0,1.09.65,1.09,1.57s-.45,1.36-1,1.37-1.09-.64-1.09-1.55.45-1.39,1-1.39m2.8-.22a10.77,10.77,0,0,1-1.57.17,2.24,2.24,0,0,0-1.11-.29,2,2,0,0,0-2.07,1.92,1.67,1.67,0,0,0,1,1.55,2.53,2.53,0,0,1-1,.7.84.84,0,0,0,.13.49,1.54,1.54,0,0,0,.85.64,8.38,8.38,0,0,0-1,.81.9.9,0,0,0-.28.64c0,.66.72,1.41,2,1.41,1.54,0,2.9-1.12,2.9-2.29s-1-1.36-1.67-1.36h-1.21c-.52,0-.73-.22-.73-.45a.75.75,0,0,1,.34-.48,3.93,3.93,0,0,0,.59.06,1.88,1.88,0,0,0,2-1.85,1.54,1.54,0,0,0-.35-1l.66,0a1.83,1.83,0,0,0,.52-.59ZM534.91,408v-.3c-.74-.07-.82-.14-.82-.92v-4a7.6,7.6,0,0,1-1.64.46v.27c.69.12.73.17.73.88v2.39c0,.78-.08.85-.81.92v.3Zm-1.35-6.2a.6.6,0,0,0,.59-.59.58.58,0,0,0-.58-.6.59.59,0,0,0-.59.6.61.61,0,0,0,.58.59m-3.83,2.23V402.8a6.59,6.59,0,0,1-1.63.48v.25c.66.09.72.14.72.9v2.4c0,.76-.08.83-.8.9v.3h2.66v-.3c-.89-.07-.95-.14-.95-.9v-2.12c.25-.65.62-1,.92-1a.63.63,0,0,1,.49.24c.07.07.17.08.31,0a.59.59,0,0,0-.3-1.14c-.55,0-1,.65-1.4,1.22Zm-7.78-.84c1,0,1.56,1.1,1.56,2.45,0,1.59-.59,2.12-1.31,2.12-1,0-1.59-1.09-1.59-2.55,0-1.3.63-2,1.34-2m.12-.38a2.63,2.63,0,0,0-2.53,2.77,2.5,2.5,0,0,0,2.53,2.56,2.57,2.57,0,0,0,2.51-2.75,2.5,2.5,0,0,0-2.51-2.58m-3,4.78-.11-.3a1.67,1.67,0,0,1-.72.19c-.28,0-.67-.17-.67-1.11v-3h1.24a.33.33,0,0,0,.07-.45H517.6v-1.59l-.16,0-.75.76V403h-.53l-.31.33,0,.12h.8v3.36c0,.92.41,1.38,1.13,1.38a1.24,1.24,0,0,0,.49-.15Z" transform="translate(-142.06 -399.79)"/></g><line class="cls-4" x1="54.42" y1="5.71" x2="357.39" y2="5.71"/></svg>