<svg id="Layer_1" data-name="Layer 1" xmlns="http://www.w3.org/2000/svg" xmlns:xlink="http://www.w3.org/1999/xlink" viewBox="0 0 140.44 103.85"><defs><style>.cls-1{fill:none;}.cls-2{clip-path:url(#clip-path);}.cls-3{fill:#231f20;}</style><clipPath id="clip-path" transform="translate(-276 -353.43)"><rect class="cls-1" x="276" y="353.43" width="140.44" height="103.85"/></clipPath></defs><title>SoS Text 6</title><g class="cls-2"><path class="cls-3" d="M415.71,455a.36.36,0,0,0-.41.3c0,.14.05.2.09.21a.57.57,0,0,1,.46.57c0,.31-.27.5-.66.63l.07.24a1.27,1.27,0,0,0,1.12-1,.83.83,0,0,0-.67-.91m.32-2.23a.44.44,0,0,0-.48.42.45.45,0,1,0,.89.06.42.42,0,0,0-.41-.48m-1.34,3.2,0-.2c-.46-.09-.5-.13-.45-.67l.13-1.54c.07-.77-.29-1.24-.92-1.3a1.24,1.24,0,0,0-.68.18l-.57.33.06-.64a4.92,4.92,0,0,1-1.14.24l0,.18c.43.12.47.14.43.65l-.14,1.65c-.05.53-.09.57-.64.57l0,.21,1.73.15,0-.21c-.47-.08-.51-.12-.46-.66l.16-1.88a1.49,1.49,0,0,1,.9-.33c.54.05.7.42.65,1l-.12,1.34c0,.55-.11.61-.58.61l0,.21Zm-4.3-.37,0-.21c-.5-.1-.55-.15-.5-.69l.26-2.75a4.69,4.69,0,0,1-1.16.2v.19c.47.13.49.16.44.66l-.16,1.64c0,.54-.11.58-.62.58l0,.21Zm-.52-4.36a.41.41,0,0,0,.45-.37.4.4,0,0,0-.36-.45.42.42,0,0,0-.45.37.43.43,0,0,0,.36.45m-3.33,4.06a2.17,2.17,0,0,1,.75.18.59.59,0,0,1,.31.61c-.05.49-.48.84-1.24.76-.59-.06-1-.44-1-.87a.87.87,0,0,1,.43-.58,1,1,0,0,1,.72-.1m.19-3.44c.45.05.7.53.63,1.15s-.41.91-.76.88-.7-.52-.63-1.14.41-.93.76-.89m1.94.05a7.89,7.89,0,0,1-1.09,0,1.67,1.67,0,0,0-.75-.28,1.37,1.37,0,0,0-1.56,1.17,1.14,1.14,0,0,0,.59,1.14,1.64,1.64,0,0,1-.76.41.69.69,0,0,0,.06.35,1,1,0,0,0,.54.49c-.21.13-.54.35-.72.49a.65.65,0,0,0-.24.43c0,.45.39,1,1.28,1.11a1.9,1.9,0,0,0,2.15-1.36c.08-.78-.55-1-1.05-1.06l-.83-.08c-.36,0-.49-.21-.47-.36a.48.48,0,0,1,.27-.31l.4.09a1.3,1.3,0,0,0,1.53-1.13,1.09,1.09,0,0,0-.16-.73l.45.07a1.4,1.4,0,0,0,.4-.37ZM404.5,455l0-.21c-.5-.11-.55-.16-.48-.7l.33-2.74a4.86,4.86,0,0,1-1.17.17l0,.19c.47.14.49.18.43.67l-.2,1.63c-.07.54-.13.59-.63.57l0,.21Zm-.42-4.37a.42.42,0,0,0,.46-.36.41.41,0,0,0-.35-.46.42.42,0,0,0-.45.37.41.41,0,0,0,.34.45m-2.78,1.21.11-.86a4.65,4.65,0,0,1-1.16.17l0,.18c.44.12.48.16.41.68l-.22,1.64c-.07.53-.13.57-.63.55l0,.21,1.82.24,0-.21c-.61-.13-.64-.18-.57-.7l.19-1.46c.23-.42.52-.62.73-.59a.41.41,0,0,1,.31.21.18.18,0,0,0,.21,0,.45.45,0,0,0,.3-.35.43.43,0,0,0-.4-.46c-.38-.05-.78.35-1.07.71ZM398,450.82c.69.1,1,.91.82,1.83-.15,1.09-.61,1.4-1.1,1.33-.65-.1-1-.9-.84-1.9s.63-1.33,1.12-1.26m.12-.25a1.83,1.83,0,0,0-2,1.66,1.73,1.73,0,0,0,1.49,2,1.76,1.76,0,0,0,2-1.63,1.74,1.74,0,0,0-1.46-2m-5.64-.8-.25.19,0,.08.55.1-.41,2.32c-.09.52-.15.55-.66.51l0,.21,1.86.32,0-.2c-.61-.17-.67-.2-.56-.79l.39-2.27.85.15a.25.25,0,0,0,.13-.29l-.93-.16.06-.32a2.51,2.51,0,0,1,.39-1.17.46.46,0,0,1,.46-.16,1,1,0,0,1,.58.4q.09.13.21.06a.41.41,0,0,0,.18-.16.24.24,0,0,0,0-.28.9.9,0,0,0-.57-.38,1.61,1.61,0,0,0-.94.28,1.92,1.92,0,0,0-.77.81,2.1,2.1,0,0,0-.2.64l0,.17Zm-2.37-.27c.68.13.91.95.73,1.87s-.68,1.36-1.17,1.26-.93-.94-.74-1.93.69-1.3,1.18-1.2m.12-.24a1.81,1.81,0,0,0-2.08,1.55,1.74,1.74,0,0,0,1.39,2.07,1.78,1.78,0,0,0,2.06-1.54,1.72,1.72,0,0,0-1.37-2.08m-5.29,1.51a.36.36,0,0,0-.44.24c0,.13,0,.2,0,.22a.55.55,0,0,1,.37.63c-.06.3-.33.45-.74.52l0,.25a1.26,1.26,0,0,0,1.26-.85.83.83,0,0,0-.53-1m-1.67-2.71a.72.72,0,0,1,.49.94c0,.11-.08.15-.22.11-.46-.09-.89-.19-1.32-.3.27-.6.69-.84,1.05-.75m.6,2.67a1.3,1.3,0,0,1-1,.17c-.54-.13-1-.72-.79-1.78.93.2,1.92.36,2.06.37s.2-.05.24-.21a1.23,1.23,0,0,0-.87-1.46,1.63,1.63,0,0,0-1.29.28,2.09,2.09,0,0,0-.84,1.24,1.57,1.57,0,0,0,1.11,2,1.82,1.82,0,0,0,1.45-.44Zm-3.79-2.92.22-.84a4.6,4.6,0,0,1-1.17,0l-.05.17c.43.18.46.22.32.73l-.43,1.6c-.14.51-.21.54-.7.46l-.05.2,1.77.48.06-.2c-.58-.21-.61-.26-.47-.77l.38-1.42c.29-.38.6-.55.8-.5a.48.48,0,0,1,.28.25.18.18,0,0,0,.2.08.41.41,0,0,0,0-.82c-.37-.1-.82.24-1.16.56ZM378,449.69l-.21-.08c-.28-.11-.33-.18-.21-.56l.78-2.56a8.48,8.48,0,0,1-1.24-.23l-.05.18c.53.24.56.29.43.73L376.9,449a1.23,1.23,0,0,1-.94.11c-.34-.1-.61-.39-.41-1.07l.32-1c.16-.52.27-.88.36-1.11a10.25,10.25,0,0,1-1.13-.2l-.06.18c.41.21.44.25.31.67l-.46,1.5c-.26.83.08,1.28.6,1.43a1.08,1.08,0,0,0,.64,0,7.06,7.06,0,0,0,.69-.22l-.16.54,0,.06a9.28,9.28,0,0,1,1.21.07ZM374,448.57v-.22a1.14,1.14,0,0,1-.51,0c-.19-.07-.4-.27-.19-.88l.67-1.94.81.28a.23.23,0,0,0,.15-.28l-.86-.3.36-1-.1-.05-.66.33-.19.55-.35-.12-.28.14v.09l.53.18-.77,2.2c-.2.6,0,1,.43,1.16a1,1,0,0,0,.35,0Zm-2.87-3.64.31-.81a4.52,4.52,0,0,1-1.17-.09l-.06.16c.4.22.43.27.24.76l-.59,1.55c-.19.49-.26.52-.74.38l-.07.2,1.72.65.07-.19c-.56-.27-.58-.32-.39-.82l.52-1.37c.32-.35.65-.49.84-.41a.41.41,0,0,1,.26.27c0,.07.09.1.19.1a.45.45,0,0,0,.38-.28.44.44,0,0,0-.29-.54c-.36-.13-.84.16-1.2.45Zm-3.2.94a1.05,1.05,0,0,1-.7,0,.57.57,0,0,1-.28-.79c.11-.26.33-.33.68-.34l.79,0Zm1,.83v-.22a.61.61,0,0,1-.3,0c-.13-.06-.21-.22-.07-.55l.59-1.37a1.16,1.16,0,0,0,.05-1,1,1,0,0,0-.51-.46,3.56,3.56,0,0,0-1.33,0c-.18.05-.31.09-.36.2a.4.4,0,0,0,.19.45.22.22,0,0,0,.28-.08,1.33,1.33,0,0,1,.43-.39.46.46,0,0,1,.4,0c.36.16.49.57.26,1.09l-.06.14a5.54,5.54,0,0,1-1.34,0,.8.8,0,0,0-.91.48,1,1,0,0,0,.49,1.27,2.34,2.34,0,0,0,1.07-.1.94.94,0,0,0,0,.41.65.65,0,0,0,.28.29Zm-4.59-4.86a1.56,1.56,0,0,1,.86.07,1.16,1.16,0,0,1,.34,1.68c-.42.8-1.08,1.11-1.68.8a1.12,1.12,0,0,1-.52-.62Zm.12-.23.29-.56a6.44,6.44,0,0,1-1.19-.23l-.09.17c.41.28.43.31.2.77L362,445c-.24.47-.33.48-.8.29l-.1.19,1.68.87.1-.19c-.53-.34-.56-.4-.28-.94l.48-.93a1.28,1.28,0,0,0,.43.38,2.25,2.25,0,0,0,2.76-1,1.41,1.41,0,0,0-.56-2,.86.86,0,0,0-.4-.08Zm-2.2-1.57a.74.74,0,0,1,.17,1.06c-.06.09-.13.11-.25,0-.4-.23-.78-.46-1.16-.7.45-.48.93-.58,1.24-.39m-.27,2.73a1.29,1.29,0,0,1-1-.15c-.47-.29-.77-1-.19-1.93.82.48,1.71.94,1.84,1s.2,0,.29-.12a1.23,1.23,0,0,0-.37-1.66,1.63,1.63,0,0,0-1.31-.13,2,2,0,0,0-1.19.9,1.57,1.57,0,0,0,.42,2.27,1.75,1.75,0,0,0,1.51,0Zm-3.67-2.22a1.31,1.31,0,0,1-.78-.25,1.24,1.24,0,0,1,0-1.79c.7-.92,1.43-.76,1.72-.54a1,1,0,0,1,.41.83Zm.81,1-.18-.17c-.22-.21-.24-.27,0-.6l2.9-3.8a7.12,7.12,0,0,1-1.16-.53l-.11.15c.43.38.45.43.13.85l-.69.89a2,2,0,0,0-.37-.39,2,2,0,0,0-2.84.32,1.6,1.6,0,0,0,.14,2.25,1.36,1.36,0,0,0,.64.2l.56.07-.32.41a8.8,8.8,0,0,1,1.17.51Zm-3.54-7.24h-.32l0,.08.37.42-1.75,1.58c-.39.35-.46.34-.84,0l-.15.14,1.27,1.4.14-.13c-.37-.51-.39-.57.05-1l1.7-1.55.58.64a.26.26,0,0,0,.29-.15l-.63-.7.23-.21a2.45,2.45,0,0,1,1-.68.47.47,0,0,1,.46.15,1,1,0,0,1,.22.68c0,.11,0,.16.12.18a.5.5,0,0,0,.25,0,.26.26,0,0,0,.18-.22.9.9,0,0,0-.23-.65,1.6,1.6,0,0,0-.91-.36,2,2,0,0,0-1.1.17,2.37,2.37,0,0,0-.55.38l-.13.12Zm-1.36-1.51c.4.57,0,1.31-.77,1.85s-1.43.51-1.72.1,0-1.33.81-1.91,1.4-.45,1.68,0m.26-.09a1.82,1.82,0,0,0-2.57-.33,1.73,1.73,0,0,0-.44,2.45,1.77,1.77,0,0,0,2.55.33,1.74,1.74,0,0,0,.46-2.45" transform="translate(-276 -353.43)"/><path class="cls-3" d="M366.67,424.69a.35.35,0,0,0-.46.19c0,.13,0,.2,0,.22a.57.57,0,0,1,.32.67c-.09.29-.37.42-.79.45l0,.25a1.27,1.27,0,0,0,1.33-.74.83.83,0,0,0-.45-1m-1.41-2.85a.74.74,0,0,1,.41,1c0,.1-.1.13-.24.09l-1.28-.43c.32-.57.77-.77,1.11-.65m.36,2.71a1.27,1.27,0,0,1-1,.08c-.52-.18-1-.81-.62-1.84.91.28,1.88.54,2,.56s.2,0,.26-.18a1.25,1.25,0,0,0-.74-1.55,1.65,1.65,0,0,0-1.3.17,2,2,0,0,0-1,1.15,1.59,1.59,0,0,0,.92,2.12,1.81,1.81,0,0,0,1.48-.3Zm-3.07-1.11a1.27,1.27,0,0,1-1.07.06,1.3,1.3,0,0,1-.6-1.81c.29-.78.88-1,1.38-.84a1.13,1.13,0,0,1,.63.59c0,.08.07.12.11.13a.39.39,0,0,0,.37-.23.3.3,0,0,0,0-.27,1.19,1.19,0,0,0-.6-.45,2.11,2.11,0,0,0-1.28,0,2,2,0,0,0-1.31,1.18,1.59,1.59,0,0,0,.91,2.13,1.89,1.89,0,0,0,1.56-.28Zm-3.38-.35.08-.19c-.41-.23-.44-.27-.23-.77l.6-1.43a1,1,0,0,0-.47-1.52,1.21,1.21,0,0,0-.71,0l-.64.14.25-.59a5,5,0,0,1-1.15-.13l-.07.17c.36.24.4.28.2.75l-.64,1.53c-.21.48-.26.5-.78.34l-.08.2,1.59.67.08-.19c-.41-.23-.44-.28-.23-.78l.73-1.73a1.44,1.44,0,0,1,1,0c.5.21.53.62.32,1.12l-.52,1.24c-.22.5-.29.54-.75.4l-.08.19Zm-3.9-5.3a.74.74,0,0,1,.3,1c-.05.1-.11.12-.24.06-.43-.18-.83-.36-1.24-.55.38-.54.85-.69,1.18-.54m.07,2.74a1.29,1.29,0,0,1-1,0c-.51-.24-.89-.91-.43-1.9.87.37,1.81.73,1.95.76s.2,0,.27-.15a1.24,1.24,0,0,0-.57-1.61,1.58,1.58,0,0,0-1.31,0,2,2,0,0,0-1.07,1,1.58,1.58,0,0,0,.69,2.21,1.83,1.83,0,0,0,1.51-.15Zm-3.18-3.6.37-.79a4.39,4.39,0,0,1-1.15-.19l-.08.16c.38.25.41.3.18.77l-.73,1.49c-.23.48-.3.5-.76.33l-.09.18,1.65.8.09-.18c-.53-.31-.55-.38-.32-.85l.64-1.32c.35-.33.69-.43.88-.34a.46.46,0,0,1,.23.3c0,.06.08.1.18.11a.45.45,0,0,0,.4-.25.44.44,0,0,0-.24-.56c-.35-.16-.85.09-1.24.34Zm-2.46-1.82a.73.73,0,0,1,.28,1c-.05.1-.12.12-.25.05l-1.22-.58c.4-.52.86-.67,1.19-.5m0,2.73a1.27,1.27,0,0,1-1,0c-.5-.24-.86-.92-.38-1.9.87.39,1.8.77,1.93.81s.21,0,.28-.15a1.23,1.23,0,0,0-.53-1.62,1.63,1.63,0,0,0-1.32,0,2.08,2.08,0,0,0-1.09,1,1.57,1.57,0,0,0,.63,2.22,1.83,1.83,0,0,0,1.52-.11Zm-3.2-4.55-.3.11v.09l.5.25-1.06,2.11c-.23.47-.3.48-.78.3l-.09.18,1.68.84.09-.17c-.53-.34-.57-.39-.31-.92l1-2.06.77.38a.28.28,0,0,0,.22-.24l-.85-.42.14-.29a2.47,2.47,0,0,1,.71-1,.47.47,0,0,1,.49,0,1.06,1.06,0,0,1,.45.56.13.13,0,0,0,.18.11.41.41,0,0,0,.22-.1.26.26,0,0,0,.09-.27.87.87,0,0,0-.44-.52,1.56,1.56,0,0,0-1,0,2,2,0,0,0-1,.56,2.5,2.5,0,0,0-.38.55l-.07.16Zm-1.93-.73a.73.73,0,0,1,.28,1c-.05.1-.11.12-.24.06l-1.22-.58c.39-.53.85-.67,1.18-.51m0,2.74a1.31,1.31,0,0,1-1-.05c-.5-.24-.87-.92-.39-1.9.87.39,1.8.76,1.93.8s.21,0,.28-.15a1.25,1.25,0,0,0-.54-1.62,1.68,1.68,0,0,0-1.32,0,2.09,2.09,0,0,0-1.09,1,1.6,1.6,0,0,0,.65,2.22,1.82,1.82,0,0,0,1.52-.13Zm-3.22-3.67.37-.79a4.4,4.4,0,0,1-1.16-.18l-.08.16c.39.25.41.3.19.78l-.7,1.5c-.23.48-.3.5-.77.33l-.08.19,1.66.78.09-.19c-.54-.31-.55-.37-.33-.84l.62-1.33c.35-.33.68-.44.87-.35a.39.39,0,0,1,.23.29.22.22,0,0,0,.19.11.48.48,0,0,0,.4-.25.45.45,0,0,0-.25-.56c-.35-.16-.85.1-1.24.36Zm-4.57-2.85-.29.13V409l.52.22-.91,2.17c-.2.49-.27.51-.76.36l-.08.19,1.74.72.08-.18c-.56-.3-.6-.35-.38-.89l.89-2.13.8.33a.27.27,0,0,0,.19-.26l-.87-.36.12-.29a2.53,2.53,0,0,1,.64-1.06.46.46,0,0,1,.48-.06,1,1,0,0,1,.49.53.13.13,0,0,0,.19.1.42.42,0,0,0,.21-.12A.24.24,0,0,0,340,408a.85.85,0,0,0-.48-.49,1.49,1.49,0,0,0-1,.06,1.93,1.93,0,0,0-.93.62,2.11,2.11,0,0,0-.33.58l-.07.16ZM334.4,408c.65.25.73,1.09.39,2s-.91,1.22-1.37,1c-.61-.24-.75-1.1-.39-2s.9-1.15,1.37-1m.17-.22a1.83,1.83,0,0,0-2.33,1.17,1.73,1.73,0,0,0,1,2.27,1.78,1.78,0,0,0,2.31-1.15,1.75,1.75,0,0,0-1-2.29m-4.56-.56a5.21,5.21,0,0,0,.08-.87,1.76,1.76,0,0,0-.65-.33,1.09,1.09,0,0,0-1.45.64c-.18.6.25,1,.64,1.35s.5.54.4.87a.55.55,0,0,1-.7.38,1.18,1.18,0,0,1-.66-1.23l-.21,0a4,4,0,0,0-.15.94,1.59,1.59,0,0,0,.81.52,1.21,1.21,0,0,0,1.58-.68c.15-.53-.16-.92-.66-1.33-.31-.25-.56-.52-.46-.86a.53.53,0,0,1,.66-.39c.37.12.55.5.56,1Zm-3.16,1.47,0-.22a1.27,1.27,0,0,1-.52,0c-.19-.05-.42-.23-.26-.86l.51-2,.83.21a.23.23,0,0,0,.13-.29l-.88-.23.27-1.06-.1,0-.64.38-.14.57-.36-.09-.26.17v.08l.53.14-.58,2.26c-.15.61,0,1,.53,1.11a.73.73,0,0,0,.35,0Zm-2.42-.34,0-.2c-.44-.15-.47-.19-.36-.72l.33-1.51c.16-.76-.13-1.27-.75-1.41a1.17,1.17,0,0,0-.7.1l-.6.25.13-.62a4.91,4.91,0,0,1-1.15.08l0,.18c.4.17.44.2.34.7l-.36,1.62c-.11.52-.15.55-.7.49l0,.2,1.69.37.05-.2c-.45-.15-.49-.19-.38-.72l.4-1.84a1.51,1.51,0,0,1,.94-.22c.52.12.63.51.52,1.05l-.29,1.31c-.11.54-.18.59-.65.53l-.05.21Zm-4.22-.87,0-.21c-.49-.14-.54-.19-.44-.73l.48-2.72a4.47,4.47,0,0,1-1.17.11l0,.19c.46.17.48.2.39.69l-.29,1.62c-.09.54-.15.57-.66.53l0,.21Zm-.17-4.39a.41.41,0,0,0,.47-.33.4.4,0,0,0-.32-.48.4.4,0,0,0-.47.34.41.41,0,0,0,.32.47m-3.41.46c.69.09,1,.89.86,1.82s-.59,1.4-1.08,1.34c-.65-.08-1-.88-.87-1.88s.59-1.34,1.09-1.28m.11-.25a1.82,1.82,0,0,0-2,1.69,1.73,1.73,0,0,0,1.52,2,1.77,1.77,0,0,0,1.95-1.68,1.73,1.73,0,0,0-1.5-2m-5.13.29a1.5,1.5,0,0,1,.82-.26c.59.05,1,.57,1,1.42s-.58,1.44-1.25,1.38a1.09,1.09,0,0,1-.72-.38Zm0-.26.05-.63a5.38,5.38,0,0,1-1.18.24l0,.19c.49.11.52.13.48.65l-.31,3.6c0,.53-.12.57-.64.57l0,.22,1.89.16,0-.21c-.62-.11-.67-.16-.62-.76l.09-1.05a1.34,1.34,0,0,0,.54.19,2.26,2.26,0,0,0,2.17-2,1.41,1.41,0,0,0-1.28-1.62,1,1,0,0,0-.4.08Z" transform="translate(-276 -353.43)"/><path class="cls-3" d="M315.07,449.2a.73.73,0,0,1-.29,1c-.09.06-.16,0-.24-.07-.27-.38-.51-.75-.76-1.12.61-.25,1.09-.14,1.29.17m-1.39,2.36a1.3,1.3,0,0,1-.83-.55c-.31-.47-.27-1.24.64-1.84.54.78,1.15,1.58,1.25,1.68s.18.1.31,0a1.24,1.24,0,0,0,.37-1.67,1.61,1.61,0,0,0-1.13-.67,2.05,2.05,0,0,0-1.46.32,1.57,1.57,0,0,0-.58,2.23,1.76,1.76,0,0,0,1.36.67Zm-1.32-6.12a1.26,1.26,0,0,1-.15,2.25c-.79.47-1.5.4-1.84-.16a.7.7,0,0,1,.22-1Zm.21-.13,2.11-1.27a6.15,6.15,0,0,1-.84-.85l-.16.1c.22.46.19.5-.23.76l-3.81,2.29a2.79,2.79,0,0,0,.36,1.16,2,2,0,0,0,2.75.68,1.63,1.63,0,0,0,.63-2.22,1.07,1.07,0,0,0-.24-.23Zm-4.05-1.14.15-.16a1.11,1.11,0,0,1-.36-.38c-.09-.17-.11-.46.47-.77l1.82-1,.4.76a.22.22,0,0,0,.29-.1l-.42-.8,1-.51,0-.11-.71-.21-.51.27-.17-.32-.31-.09-.06.07.26.49-2.06,1.08c-.56.3-.71.69-.47,1.14a.89.89,0,0,0,.24.25Zm-1.38-2,.18-.09c-.17-.44-.15-.51.33-.74l1.25-.61c.87-.42,1-1,.75-1.59a1.77,1.77,0,0,0-1-.78L311,437.2a9.68,9.68,0,0,1-.76-.94l-.17.08c.19.5.16.53-.29.75l-3.43,1.67c-.48.23-.55.19-.8-.23l-.18.09.74,1.53.18-.09c-.16-.45-.13-.51.33-.73l1.72-.84a1.18,1.18,0,0,1,.73.57c.23.49,0,.85-.55,1.14l-1.19.58c-.47.23-.54.19-.79-.21l-.18.09Zm-2.57-5.39a2,2,0,0,1,.2.75.58.58,0,0,1-.38.56c-.46.2-1,0-1.27-.71s-.11-1.11.29-1.27a.89.89,0,0,1,.72.09c.18.09.29.23.44.58m3.1-1.49c.18.42-.12.86-.7,1.11s-1,.08-1.14-.24.12-.87.7-1.11,1-.09,1.14.24m.89,1.72a9,9,0,0,1-.53-1,1.5,1.5,0,0,0-.11-.78,1.37,1.37,0,0,0-1.78-.81,1.16,1.16,0,0,0-.71,1.07,1.78,1.78,0,0,1-.73-.46.6.6,0,0,0-.27.21,1,1,0,0,0-.18.72,6.26,6.26,0,0,0-.77-.4.64.64,0,0,0-.49,0c-.42.18-.71.83-.36,1.65a1.91,1.91,0,0,0,2.24,1.23c.72-.3.61-1,.42-1.43-.1-.24-.22-.5-.34-.77s-.05-.52.1-.58a.45.45,0,0,1,.39.09c0,.12.07.27.12.39a1.3,1.3,0,0,0,1.72.8,1.14,1.14,0,0,0,.57-.5l.15.43a1.33,1.33,0,0,0,.52.17Zm-4.69-2.17.2-.07c-.13-.5-.1-.57.41-.75l2.6-.93a5.28,5.28,0,0,1-.67-1l-.18.06c.08.48.06.51-.41.68l-1.55.55c-.51.18-.58.15-.79-.31l-.19.07Zm3.73-2.32a.41.41,0,0,0,.52.25.4.4,0,0,0,.26-.52.41.41,0,0,0-.78.27m-4.54.27.19-.06c-.08-.45-.06-.52.45-.67l1.49-.43c.75-.22,1.06-.72.89-1.31a1,1,0,0,0-.37-.52c-.17-.16-.38-.34-.61-.52a1,1,0,0,0,.38-1,1.15,1.15,0,0,0-.39-.57c-.21-.19-.4-.32-.55-.45l.62-.18a4.94,4.94,0,0,1-.63-1l-.17.05c.06.47,0,.5-.47.65l-1.59.46c-.5.14-.56.09-.76-.41l-.19.06.46,1.62.2-.06c-.06-.39,0-.46.47-.61l1.8-.52a1.56,1.56,0,0,1,.65.72c.13.47-.12.76-.69.93l-1.33.38c-.5.15-.56.09-.75-.37l-.19,0,.47,1.65.2-.06c-.08-.44-.05-.52.43-.66l1.5-.43.32-.12a1.47,1.47,0,0,1,.65.75c.14.48-.15.77-.7.93l-1.28.37c-.55.16-.6.08-.78-.36l-.2.06Zm-1.89-8,.19-.11a1.1,1.1,0,0,1-.23-.46c0-.2,0-.48.66-.61l2-.41.18.84a.22.22,0,0,0,.31,0l-.18-.88,1.07-.22v-.11l-.62-.41-.58.12-.07-.36-.27-.17-.07.05.11.54-2.28.47c-.62.12-.88.46-.78,1a.78.78,0,0,0,.17.3Zm-.31-3.52a1.21,1.21,0,0,1-.38-.59A.58.58,0,0,1,301,420c.29,0,.47.1.66.39s.33.5.45.65Zm-.15,1.3.2-.11a.7.7,0,0,1-.14-.27c0-.14.08-.3.43-.36l1.47-.24a1.15,1.15,0,0,0,.91-.51,1,1,0,0,0,.1-.68,3.49,3.49,0,0,0-.74-1.09c-.14-.14-.24-.22-.36-.21a.39.39,0,0,0-.28.41.22.22,0,0,0,.22.2,1.1,1.1,0,0,1,.56.15.44.44,0,0,1,.21.33c.07.39-.21.71-.78.81l-.14,0a5.86,5.86,0,0,1-.72-1.14.8.8,0,0,0-.88-.51,1,1,0,0,0-.81,1.1c0,.24.39.57.65.85a.85.85,0,0,0-.32.25.68.68,0,0,0-.09.39Zm-.87-3.51.21,0c0-.47,0-.54.51-.63l1.38-.24c.95-.17,1.27-.69,1.16-1.33a1.78,1.78,0,0,0-.78-1l2.65-.47a8.22,8.22,0,0,1-.48-1.11l-.18,0c0,.53,0,.55-.49.64l-3.76.67c-.52.09-.58,0-.7-.44l-.21,0,.3,1.67.2,0c0-.47,0-.52.52-.61l1.88-.33a1.11,1.11,0,0,1,.54.74c.1.53-.18.83-.83,1l-1.31.23c-.51.09-.57,0-.7-.41l-.2,0Zm-.47-4.2.19-.12a1.18,1.18,0,0,1-.24-.45c0-.2,0-.48.66-.62l2-.42.18.84a.22.22,0,0,0,.31,0l-.18-.88,1.07-.23v-.11l-.62-.4-.57.12-.08-.36-.27-.17-.07,0,.11.54-2.28.48c-.61.13-.87.47-.77,1a.86.86,0,0,0,.18.31Zm1.22-5.07a5.68,5.68,0,0,0,.78-.39,1.91,1.91,0,0,0-.05-.72,1.11,1.11,0,0,0-1.31-.91c-.59.16-.72.72-.81,1.25s-.2.7-.54.79a.55.55,0,0,1-.69-.4,1.18,1.18,0,0,1,.71-1.21l-.09-.19a3.62,3.62,0,0,0-.88.37,1.55,1.55,0,0,0,0,1,1.2,1.2,0,0,0,1.4,1c.54-.14.71-.61.8-1.25.05-.39.15-.75.5-.84a.51.51,0,0,1,.66.36.94.94,0,0,1-.55,1Zm-.51-4.33a.73.73,0,0,1-.55.91c-.11,0-.17,0-.21-.13-.16-.44-.3-.86-.44-1.28.66-.09,1.09.15,1.2.5m-2,1.91a1.29,1.29,0,0,1-.66-.75c-.17-.53.06-1.26,1.1-1.6.32.9.7,1.82.76,2s.15.14.3.09a1.24,1.24,0,0,0,.8-1.51,1.63,1.63,0,0,0-.92-.94,2.05,2.05,0,0,0-1.49-.08,1.59,1.59,0,0,0-1.15,2,1.82,1.82,0,0,0,1.14,1Zm-1-3.17a1.28,1.28,0,0,1-.74-.77,1.32,1.32,0,0,1,1-1.64c.8-.28,1.37,0,1.54.51a1.12,1.12,0,0,1,0,.86c0,.09-.05.13,0,.17a.4.4,0,0,0,.42.13.29.29,0,0,0,.19-.2,1.22,1.22,0,0,0-.05-.74,2.15,2.15,0,0,0-.83-1,1.91,1.91,0,0,0-1.74-.22,1.6,1.6,0,0,0-1,2.07,1.93,1.93,0,0,0,1.23,1Zm-1.8-4.1a1.21,1.21,0,0,1-.51-.49.6.6,0,0,1,.35-.76c.27-.11.48,0,.73.23l.59.54Zm.16,1.3.16-.15a.55.55,0,0,1-.19-.24c-.06-.12,0-.3.33-.44l1.38-.57a1.17,1.17,0,0,0,.76-.71,1.1,1.1,0,0,0-.05-.69,3.88,3.88,0,0,0-1-.89c-.16-.1-.28-.16-.4-.11a.39.39,0,0,0-.18.45.22.22,0,0,0,.26.15,1.08,1.08,0,0,1,.58,0,.43.43,0,0,1,.29.27c.15.37-.05.74-.58,1l-.13.05a5.78,5.78,0,0,1-1-.94.8.8,0,0,0-1-.3,1,1,0,0,0-.53,1.26c.09.22.51.47.83.68a.76.76,0,0,0-.25.31.64.64,0,0,0,0,.41Zm-1.71-3.2.19-.09c-.18-.48-.16-.56.32-.78l4.39-2.08a6.85,6.85,0,0,1-.75-.95l-.18.08c.18.47.18.53-.31.76L294,396.76c-.48.22-.55.18-.81-.26l-.19.09Zm.37-5.48a1.41,1.41,0,0,1,.67.55c.28.52.08,1.17-.68,1.57s-1.52.29-1.83-.31a1.1,1.1,0,0,1-.08-.81Zm.24-.13.56-.29a5.25,5.25,0,0,1-.84-.87l-.17.09c.17.47.17.51-.29.75l-3.2,1.68c-.47.24-.55.2-.83-.23l-.19.1.88,1.68.19-.1c-.24-.58-.23-.65.31-.93l.93-.49a1.42,1.42,0,0,0,.13.56,2.27,2.27,0,0,0,2.85.75,1.42,1.42,0,0,0,.68-2,.79.79,0,0,0-.29-.29Zm-3.88-2.81a.37.37,0,0,0-.48-.16c-.12.07-.14.16-.12.19a.57.57,0,0,1-.21.7c-.26.16-.56.07-.89-.18l-.16.2a1.29,1.29,0,0,0,1.49.33.84.84,0,0,0,.37-1.08m2-1a.46.46,0,0,0-.79.46.44.44,0,0,0,.62.15.43.43,0,0,0,.17-.61m-3.4-.61a1.39,1.39,0,0,1-.63-.51,1.24,1.24,0,0,1,.64-1.68c1-.6,1.61-.19,1.8.13a1,1,0,0,1,.08.91Zm.41,1.2-.11-.23c-.13-.27-.12-.34.23-.55l4.08-2.49a7.91,7.91,0,0,1-.89-.92l-.16.1c.27.51.27.56-.18.84l-1,.58a1.64,1.64,0,0,0-.2-.49,2,2,0,0,0-2.76-.74,1.61,1.61,0,0,0-.69,2.15,1.29,1.29,0,0,0,.52.42l.5.26-.44.27a9.24,9.24,0,0,1,.9.9ZM289,383a.73.73,0,0,1-.32,1c-.1.06-.16.05-.24-.08q-.37-.57-.72-1.14c.61-.23,1.08-.11,1.28.21m-1.46,2.32a1.34,1.34,0,0,1-.82-.58c-.29-.47-.23-1.24.7-1.81.52.79,1.11,1.61,1.2,1.71s.18.11.31,0a1.23,1.23,0,0,0,.42-1.65,1.6,1.6,0,0,0-1.11-.7,2.05,2.05,0,0,0-1.47.27,1.58,1.58,0,0,0-.65,2.22,1.82,1.82,0,0,0,1.34.71ZM285.5,383l.14-.17a1.13,1.13,0,0,1-.37-.36c-.1-.17-.13-.46.43-.79l1.77-1,.44.74a.22.22,0,0,0,.29-.11l-.46-.78.95-.56,0-.1-.72-.18-.51.29-.18-.31-.31-.07-.05.06.28.48-2,1.18c-.55.32-.68.72-.43,1.15a.77.77,0,0,0,.26.24Zm.52-5.25c.33.61-.17,1.3-1,1.74s-1.49.33-1.72-.11.15-1.32,1-1.79,1.44-.28,1.67.16m.27,0a1.81,1.81,0,0,0-2.51-.65,1.73,1.73,0,0,0-.75,2.37,1.79,1.79,0,0,0,2.5.65,1.73,1.73,0,0,0,.76-2.37m-2-3.49c.29.63-.25,1.29-1.11,1.67s-1.5.23-1.7-.22c-.27-.6.23-1.31,1.15-1.72s1.46-.18,1.66.27m.27,0a1.82,1.82,0,0,0-2.47-.8,1.73,1.73,0,0,0-.89,2.32,1.78,1.78,0,0,0,2.45.8,1.74,1.74,0,0,0,.91-2.32m-2-2.66.82-.3a4.19,4.19,0,0,1-.69-.95l-.17.06c.1.45.08.5-.42.68l-1.55.56c-.5.18-.57.14-.78-.31l-.19.07.62,1.73.19-.07c-.16-.6-.13-.65.37-.83l1.38-.49c.48,0,.79.17.86.37a.45.45,0,0,1,0,.37.18.18,0,0,0,.05.21.46.46,0,0,0,.46.11.45.45,0,0,0,.22-.57c-.13-.36-.67-.54-1.12-.63ZM281.35,370l-.5-1.76h-.46l.5,1.76Zm-.5-5.11a1.55,1.55,0,0,1,.49.71c.13.58-.24,1.15-1.08,1.33s-1.54-.12-1.68-.78a1.06,1.06,0,0,1,.15-.8Zm.25-.05.62-.14a5.88,5.88,0,0,1-.58-1.06l-.18,0c0,.5,0,.54-.48.65l-3.54.76c-.51.11-.57.05-.73-.44l-.21,0,.4,1.85.21,0c-.08-.62-.05-.69.54-.81l1-.22a1.41,1.41,0,0,0,0,.57,2.29,2.29,0,0,0,2.55,1.49,1.43,1.43,0,0,0,1.18-1.7.82.82,0,0,0-.2-.36Zm-.18-2.75a.73.73,0,0,1-.69.81c-.11,0-.17,0-.19-.16-.08-.46-.15-.89-.22-1.34.66,0,1.05.33,1.1.69m-2.24,1.57a1.26,1.26,0,0,1-.53-.85c-.08-.55.27-1.23,1.34-1.4.17.94.4,1.92.44,2.05s.12.17.28.14a1.23,1.23,0,0,0,1-1.36,1.63,1.63,0,0,0-.75-1.08,2.06,2.06,0,0,0-1.46-.32,1.58,1.58,0,0,0-1.46,1.79,1.83,1.83,0,0,0,1,1.18Zm1.89-4.78a.72.72,0,0,1-.74.76c-.11,0-.16,0-.17-.17-.06-.46-.1-.9-.14-1.35.66.07,1,.39,1.05.76m-2.33,1.42a1.31,1.31,0,0,1-.48-.87c-.05-.56.35-1.22,1.43-1.32.11.94.28,1.93.31,2.07s.11.17.27.16a1.24,1.24,0,0,0,1.11-1.3,1.58,1.58,0,0,0-.68-1.12,2,2,0,0,0-1.44-.41,1.58,1.58,0,0,0-1.56,1.7,1.82,1.82,0,0,0,.88,1.23Zm-.46-4.3a1.33,1.33,0,0,1-.29-.76c0-.51.44-1.11,1.39-1.13,1.16,0,1.49.63,1.5,1a1,1,0,0,1-.39.84Zm-.24,1.25,0-.26c0-.29.06-.35.48-.36l4.77-.13a7.72,7.72,0,0,1-.31-1.24h-.19c0,.57-.05.61-.58.63l-1.12,0a1.92,1.92,0,0,0,.07-.53,2,2,0,0,0-2-2A1.59,1.59,0,0,0,277,355a1.41,1.41,0,0,0,.25.62l.3.48H277a9.1,9.1,0,0,1,.34,1.23Z" transform="translate(-276 -353.43)"/></g></svg>